<?xml version="1.0" encoding="utf-8"?>
<!-- Generator: Adobe Illustrator 27.9.0, SVG Export Plug-In . SVG Version: 6.00 Build 0)  -->
<svg version="1.1" id="Layer_2_00000000913265588639614140000014899221279104364975_"
	 xmlns="http://www.w3.org/2000/svg" xmlns:xlink="http://www.w3.org/1999/xlink" x="0px" y="0px" viewBox="0 0 74 70"
	 style="enable-background:new 0 0 74 70;" xml:space="preserve">
<style type="text/css">
	.st0{clip-path:url(#SVGID_00000049200801753848045360000012076962877421784250_);}
	.st1{fill:#17E5E0;}
</style>
<g id="Layer_1-2">
	<g>
		<defs>
			<polyline id="SVGID_1_" points="74,70 0,70 0,0 74,0 			"/>
		</defs>
		<clipPath id="SVGID_00000104686643254126708940000008568866154772059011_">
			<use xlink:href="#SVGID_1_"  style="overflow:visible;"/>
		</clipPath>
		<g style="clip-path:url(#SVGID_00000104686643254126708940000008568866154772059011_);">
			<path className="st1" d="M64.3,48.1c-1.7,2.4-3.3,4.7-5.3,6.8c-1.5-1.1-2.9-2.1-4.4-3.1c-0.5-0.3-1-0.9-1.5-0.9
				c-0.5,0-0.9,0.5-1.4,0.8c-1.1,0.7-2.2,1.4-3.3,2.1c-0.3,0.2-0.3,0.3-0.3,0.6c0.5,2.2,0.9,4.5,1.3,6.8c-2.7,0.8-5.5,1.5-8.2,2.3
				c-0.8-2.3-1.5-4.5-2.2-6.7c-0.2-0.5-0.3-0.5-0.8-0.5c-1.5,0-3,0-4.5-0.1c-0.4,0-0.5,0.2-0.6,0.5c-0.9,2.2-1.6,4.4-2.5,6.5
				c-2.5-0.8-4.9-1.8-7.3-2.7c-0.9-0.4-0.9-0.4-0.6-1.4c0.6-1.9,1.2-3.8,1.7-5.7c0-0.2,0-0.5-0.1-0.6c-1.1-1-2.1-1.8-3.2-2.8
				c-0.3-0.3-0.5-0.3-0.9-0.1c-1.9,1.3-3.7,2.6-5.7,4c-1.7-2.3-3.4-4.7-5.1-7.1c2-1.5,3.9-3,5.9-4.5c0.1-0.1,0.2-0.4,0.1-0.6
				c-0.4-1.5-0.9-2.9-1.4-4.3c-0.1-0.3-0.3-0.4-0.6-0.4C11.1,37.1,9,37,6.8,36.9c-0.5,0-0.6-0.2-0.6-0.6c0.1-2.5,0.2-5,0.3-7.5
				c0-0.4,0.2-0.5,0.5-0.5c2.2-0.1,4.4-0.2,6.7-0.3c0.2,0,0.4-0.2,0.5-0.3c0.6-1.5,1.1-3,1.7-4.4c0.1-0.3,0-0.5-0.2-0.6
				c-1.6-1.3-3.1-2.6-4.7-4c-0.7-0.6-0.7-0.6-0.2-1.3c1.6-2,3.2-4.1,4.8-6.1c1.8,1.4,3.7,2.5,5.5,3.8c0.3,0.2,0.5,0.2,0.8,0
				c1.2-0.8,2.5-1.6,3.7-2.4c0.4-0.2,0.5-0.4,0.4-0.9c-0.5-2.2-1-4.4-1.4-6.6c2.4-0.9,5-1.5,7.5-2.3c0.5-0.2,0.8-0.1,1,0.5
				c0.7,2,1.4,3.9,2.1,5.8c0.1,0.1,0.3,0.3,0.5,0.3c1.6,0,3.2,0,4.8,0.1c0.4,0,0.6-0.1,0.7-0.4c0.8-2.1,1.7-4.2,2.6-6.3
				c2.7,0.9,5.3,1.9,8,2.8c-0.6,2.3-1.2,4.6-1.7,6.9c0,0.2,0.1,0.5,0.2,0.6c1.1,0.9,2.2,1.8,3.3,2.7c0.1,0.1,0.4,0.2,0.5,0.1
				c2-1.2,3.9-2.3,6-3.6c1.7,2.3,3.4,4.6,5.1,6.9c-1.9,1.6-3.8,3-5.6,4.6c-0.1,0.1-0.2,0.4-0.2,0.5c0.4,1.3,0.8,2.5,1.2,3.8
				c0.1,0.4,0.3,0.5,0.7,0.6c2.2,0.2,4.5,0.4,6.8,0.7v8.5c-2.4,0.1-4.7,0.2-7.1,0.3c-0.4,0-0.6,0.2-0.7,0.5c-0.5,1.3-1,2.6-1.5,3.9
				c-0.2,0.4,0,0.6,0.2,0.9C60.8,45,62.5,46.5,64.3,48.1L64.3,48.1z M37,50.9c10,0,18.1-7.8,18.4-17.6c0.3-9.3-7.2-18.4-17.8-18.5
				c-10.2-0.1-18.4,8.4-18.1,18.8C19.7,42.9,27.3,50.9,37,50.9z"/>
			<path className="st1" d="M45.4,28.9h-1.1V28c1.7,0,3.5-0.1,5.2,0.1c1.9,0.2,3.1,1.6,3,3.3c-0.2,3-3.1,3.2-5.6,3.1v3
				c0.6,0.1,1.2,0.2,1.8,0.3v0.7c-1.5,0-2.9,0-4.3,0c-0.1,0-0.3-0.2-0.4-0.4c0.1-0.1,0.2-0.2,0.2-0.2c0.8-0.3,1.2-1,1.2-1.8
				C45.4,33.7,45.4,31.3,45.4,28.9L45.4,28.9z M47,29.1c-0.2,0.9,0,1.9-0.1,2.9c0,1.5,0,1.5,1.5,1.5c2.2,0.2,3.2-2.4,2-4
				C49.5,28.5,48.1,29.1,47,29.1z"/>
			<path className="st1" d="M42.8,38.4h-4.1c-0.3-0.5,0.1-0.6,0.4-0.7c0.3-0.1,0.6-0.2,1-0.3c-0.3-0.7-0.5-1.3-0.8-1.9
				c0-0.1-0.3-0.2-0.4-0.2c-1.2,0-2.5,0-3.7,0c-0.1,0-0.3,0.1-0.4,0.2c-0.3,0.7-0.5,1.3-0.8,2c0.7,0.2,2-0.2,1.6,0.9h-4
				c-0.2-0.3-0.1-0.5,0.3-0.6c0.7-0.1,1.1-0.6,1.3-1.3c1.1-2.8,2.4-5.5,3.4-8.4c0.3-0.1,0.7-0.2,1.1-0.4c1.3,3.2,2.6,6.2,3.8,9.4
				c0.2,0.4,0.4,0.6,0.8,0.5C42.9,37.6,43.1,37.8,42.8,38.4L42.8,38.4z M37.1,29.7c-0.6,1.6-1.2,3-1.8,4.5h3.5
				C38.3,32.7,37.7,31.3,37.1,29.7L37.1,29.7z"/>
			<path className="st1" d="M26.1,29.1h-2.6c-0.1,0.5-0.2,1-0.2,1.6h-0.9c0-0.9-0.1-1.7-0.1-2.6h9.2c0,0.9-0.1,1.7-0.1,2.5
				c-0.9,0.2-0.9,0.2-1-0.6c0-0.3-0.1-0.6-0.1-0.9h-2.6v8.4c0.6,0.1,1.1,0.2,1.7,0.2v0.7c-1.6,0-3.1,0-4.7,0c-0.1,0-0.2-0.2-0.4-0.4
				c0.7-0.3,1.6-0.3,1.8-0.9C26.1,34.5,26.3,31.8,26.1,29.1L26.1,29.1z"/>
		</g>
	</g>
</g>
</svg>
