<?xml version="1.0" encoding="UTF-8"?><svg id="Layer_1" xmlns="http://www.w3.org/2000/svg" viewBox="0 0 185.84 176.59"><defs><style>.cls-1{fill:#77ced9;}.cls-1,.cls-2,.cls-3,.cls-4{stroke-width:0px;}.cls-2{fill:#272828;}.cls-3{fill:#121213;}.cls-4{fill:#dadada;}</style></defs><path class="cls-1" d="M114.06,76.05c-1.3-.24-2.41.44-3.6.77-2.68.73-3.55.4-4.67-2.08-.45-1.01-.68-2.12-.97-3.19-1.32-4.92-1.09-5.38,3.55-7.22,3.67-1.45,4.5-2.75,3.98-6.41-.26-1.81-.88-3.39-3.02-3.73-.6-.1-1.17-.4-1.75-.61-3.56-1.27-4.02-2.16-3.06-5.88.22-.84.38-1.69.64-2.52,1.29-4.03,2.54-4.68,6.58-3.43,3.8,1.18,4.54,1.03,6.18-1.21,2.54-3.49,2.56-4.57.12-7.95-2.35-3.26-2.18-4.23,1.12-6.67.6-.44,1.19-.9,1.79-1.34,3.4-2.57,4.56-2.37,7.29,1.01,1.43,1.76,2.52,4.05,5.71,2.77,3.59-1.44,4.61-2.43,4.72-6.16.14-4.3,1.04-5.18,5.36-5.22.5,0,1,0,1.5,0,4.83.02,5.67.83,5.8,5.56.11,3.87,2.77,6.35,6.65,6.17.89-.04,1.68-.47,2.25-1.17.79-.96,1.64-1.9,2.27-2.96,1.24-2.1,2.97-2.19,4.77-1.1,1.8,1.08,3.52,2.35,5.09,3.75,1.32,1.17,1.62,2.49.33,4.21-1.51,2.02-3.19,4.13-2.03,7.11,1.28,3.32,3.19,4.48,6.61,3.6,5.9-1.52,5.95-1.5,7.76,4.26.3.94.6,1.9.75,2.87.25,1.75-.02,3.18-2.14,3.71-1.19.3-2.32.91-3.39,1.53-2.18,1.25-2.99,3.17-2.71,5.67.25,2.32,1.53,3.51,3.7,4.07,1.07.28,2.05.88,3.07,1.34.85.39,1.48,1,1.5,1.97.05,3.2-.93,6.11-2.76,8.69-.68.96-1.67,1.42-2.94.77-.76-.39-1.63-.61-2.47-.82-3.04-.74-4.4-.24-6.1,2.17-2.03,2.87-2.04,3.58-.01,6.64.48.73.98,1.44,1.47,2.16,1.01,1.51.56,2.85-.6,4-.61.61-1.4,1.02-2.09,1.55-5.14,3.96-5.18,3.99-9.33-1.21-1.6-2-3.36-2.16-5.59-1.27-2.17.86-4.27,1.62-4.04,4.55.04.5,0,1,0,1.5,0,.37.01.75-.02,1.12-.31,3.06-2,4.07-6.74,4.01-4.35-.05-5.61-.91-5.88-4-.03-.37-.02-.75,0-1.12.25-5.35-.82-4.89-5.72-6.52-1.46-.49-2.65.41-3.63,1.41-.61.61-1.01,1.42-1.57,2.08-2.43,2.86-3.05,2.94-6.21.82-.31-.21-.64-.39-.94-.61-6.15-4.52-4.73-4.82-1.74-9.05,1.02-1.44,1.7-2.98.62-4.46-1.34-1.83-2.41-4.28-5.41-3.92ZM144.72,37.11c-10.83-.42-21.99,9.48-21.79,21.86.21,12.66,9.35,22.18,21.88,22.15,13.44-.02,22.2-10.34,22.24-22.24.04-10.79-9.2-22.09-22.33-21.78Z"/><path class="cls-3" d="M100.38,44.6c.28,1.89-.75,3.59-.94,5.42-.1.97-.83,1.43-1.88,1.35-.87-.07-1.75-.01-2.62-.01-19.58,0-39.16,0-58.75,0-.75,0-1.5,0-2.25,0-6.11.07-7.82,1.71-7.85,7.72-.04,8.11-.01,16.21-.01,24.32,0,10.73,0,21.45,0,32.18,0,1.37,0,2.75.12,4.11.32,3.58,2.32,5.38,5.86,5.31,35.41-.7,70.82-.11,106.23-.3,5.1-.03,6.56-1.36,6.78-6.57.14-3.24.18-6.49-.01-9.72-.12-2.13.72-2.92,2.69-3.01,1.34-.06,2.68-.23,4.31-.37,0,5.78,0,11.36,0,16.94,0,1.1-.75,2.11.61,3.25.7.58.7,2.8-1.65,2.5-1.18-.15-1.74.8-2.49,1.41-2.51,2.03-5.37,3.08-8.59,3.15-1.37.03-2.74.05-4.11.05-34.42,0-68.85-.03-103.27-.03-8.62,0-13.77-4.97-13.79-13.58-.05-20.33.11-40.66-.09-60.99-.07-7.31,5.35-13.41,12.89-13.49,5.49-.06,10.98-.04,16.46-.04,16.21,0,32.43-.01,48.64.02,1.2,0,2.48-.35,3.71.4Z"/><path class="cls-2" d="M12.55,140.84h145.42c.29,5.31-3.1,9.16-8.35,9.31-5.86.17-11.72.14-17.58.15-8.86.02-17.71-.02-26.57.03-1.67.01-2.79-.19-3.21-2.16-.51-2.39-2.26-3.3-4.69-3.39-7.98-.28-15.95-.15-23.93-.07-2.7.03-4.69,1.19-5.17,3.89-.28,1.55-.95,1.81-2.21,1.71-.5-.04-1,0-1.5,0-13.22,0-26.44,0-39.66,0-2.12,0-4.2-.08-6.25-.84-3.87-1.44-6.09-4.02-6.31-8.64Z"/><path class="cls-1" d="M12.16,84.46c-3.04-4.58-4.91-9.52-6.84-14.44C.92,58.83-.68,47.2.26,35.28c.63-8.07,3.44-15.39,8.76-21.74C15.9,5.35,24.71,1.49,35.18.36c13.74-1.48,26.56,1.79,39.2,6.55,9.35,3.53,18.12,8.18,26.46,13.65,5.08,3.33,10.45,6.35,12.98,12.36.14.34.44.61.6.94.73,1.49.07,2.74-.95,3.69-1.04.96-1.81-.16-2.54-.73-5.37-4.23-10.83-8.34-16.53-12.12-14.72-9.78-30.33-17.71-48-20.28-8.66-1.26-17.62-1.61-25.84,2.7C11.64,11.78,6.15,18.94,4.52,29.06c-1.5,9.29-.33,18.3,2.2,27.21,1.22,4.3,2.57,8.56,4.35,12.68.79,1.83,1.18,3.77,1.13,5.81-.09,3.23-.02,6.47-.02,9.71Z"/><path class="cls-1" d="M78.17,156.35c6.69-.49,12.78-.32,18.75,3.46,9.31,5.89,19.87,9.09,30.64,11.11,8.85,1.66,17.7,1.54,26.35-1.95,9.61-3.87,16.95-13.87,17.73-25.12.94-13.48-2.14-26.12-7.42-38.37-.67-1.56-1.58-3.09-1.59-4.84.3-.16.51-.37.72-.37,5.21-.09,7.15,2.95,8.59,7.63,3.1,10.05,5.17,20.17,4.82,30.71-.6,18.3-12.16,33.62-31.1,37.02-10.32,1.85-20.56.94-30.61-1.8-10.22-2.78-19.97-6.78-29.11-12.19-1.82-1.07-3.76-1.93-5.62-2.94-.83-.45-1.94-.62-2.15-2.35Z"/><path class="cls-1" d="M98.92,102.52c-2.22-.12-3.54,1.6-2.34,3.52,1.21,1.93.1,2.67-1.02,3.68-1.2,1.07-2.1.63-3.24-.29-2.24-1.82-3.25-1.58-3.86.98-.39,1.66-1.09,2.34-2.72,2.38-1.61.05-2.3-.42-2.71-2.19-.61-2.61-2.22-2.99-4.32-1.2-1.31,1.12-2.29,1.28-3.54.12-1.04-.97-1.85-1.68-.82-3.41,1.29-2.17-.02-3.92-2.51-3.42-1.88.38-2.41-.35-2.93-1.86-.44-1.31-.6-2.14.81-3.11,3.01-2.07,2.94-2.63-.02-4.61-.77-.51-1.57-1.01-1.25-2.02.36-1.15.56-2.52,1.98-2.95.46-.14.99-.03,1.48-.08,2.97-.27,3.16-.5,2.52-3.38-.31-1.39-.61-2.63.92-3.6,1.51-.96,2.41-.31,3.58.68,1.6,1.36,3.12.86,3.94-1.32.54-1.44.74-2.99,2.78-2.8,1.77.17,2.39,1.29,2.81,2.94.54,2.12,2.07,2.57,3.75.98,1.46-1.39,2.58-1.01,3.96-.17,1.5.91.94,1.94.43,3.18-.92,2.27-.17,3.47,2.42,3.41,2.13-.05,2.91,1.05,3.43,2.68.52,1.63-.68,2-1.83,2.66-2.11,1.22-2.13,2.85.24,4.17,2.28,1.28,1.81,2.63.9,4.28-.66,1.19-1.68,1.38-2.84.72ZM94.5,95.55c.04-5.31-3.5-9.03-8.64-9.1-5.59-.08-9.07,3.38-9.46,8.72-.29,4.06,3.42,9.24,9.09,9.31,4.93.06,8.98-3.98,9.01-8.93Z"/><path class="cls-1" d="M41.7,79.17c.55-1.15.17-1.97-1-2.31-2.52-.75-2.1-2.2-.71-3.52,1.26-1.21,1.2-2.05.29-3.47-1.03-1.61-.56-2.89,1.7-2.78,1.59.08,2.14-.77,2.31-2.25.23-2.05,1.23-2.58,2.98-1.23,1.1.85,2.12.63,2.81-.57,1.06-1.83,2.24-1.44,3.04.03.76,1.4,1.6,2.09,3.22,1.77,1.96-.39,2.4.76,2.2,2.39-.17,1.4.17,2.36,1.69,2.84,1.92.6,1.76,2.13.6,3.08-1.43,1.17-1.88,1.87-.63,3.56,1.17,1.58.51,2.81-1.58,2.92-1.81.1-2.3.63-2.37,2.39-.08,1.97-1.08,2.73-2.92,1.26-1.16-.93-2.06-.59-3.22.4-2.1,1.81-2.45,1.7-3.46-.99-.55-1.46-1.18-1.03-2.23-.85-2.53.45-3.01-.1-2.75-2.66ZM50.46,79.12c3.33-.05,5.92-2.68,5.83-5.9-.09-3.09-2.98-6.25-5.93-6.08-4.2.25-6.24,2.89-6.08,6.5.15,3.29,2.62,5.53,6.18,5.48Z"/><path class="cls-4" d="M145.16,45.35c7.25-.94,13.9,7.22,13.8,13.54-.13,8.68-7.21,14.4-14.46,14.21-7.72-.21-13.4-6.08-13.37-14.26.02-8.03,5.71-13.5,14.02-13.49Z"/></svg>