<?xml version="1.0" encoding="UTF-8"?>
<svg xmlns="http://www.w3.org/2000/svg" xmlns:xlink="http://www.w3.org/1999/xlink" width="0" height="0">
<symbol id="chevron-down" class="icon icon-tabler icon-tabler-chevron-down" viewBox="0 0 24 24" stroke-width="2" stroke="currentColor" fill="none" stroke-linecap="round" stroke-linejoin="round">
  <path stroke="none" d="M0 0h24v24H0z" fill="none"/>
  <path d="M6 9l6 6l6 -6" />
</symbol>




<!-- Generator: Adobe Illustrator 27.9.0, SVG Export Plug-In . SVG Version: 6.00 Build 0)  -->
<symbol id="tapCyan"
	 x="0px" y="0px" viewBox="0 0 74 70"
	 style="enable-background:new 0 0 74 70;" xml:space="preserve">
<style type="text/css">
	.st0{clip-path:url(#SVGID_00000049200801753848045360000012076962877421784250_);}
	.st1{fill:#17E5E0;}
</style>
<g id="Layer_1-2">
	<g>
		<defs>
			<polyline id="SVGID_1_" points="74,70 0,70 0,0 74,0 			"/>
		</defs>
		<clipPath id="SVGID_00000104686643254126708940000008568866154772059011_">
			<use xlink:href="#SVGID_1_"  style="overflow:visible;"/>
		</clipPath>
		<g style="clip-path:url(#SVGID_00000104686643254126708940000008568866154772059011_);">
			<path className="st1" d="M64.3,48.1c-1.7,2.4-3.3,4.7-5.3,6.8c-1.5-1.1-2.9-2.1-4.4-3.1c-0.5-0.3-1-0.9-1.5-0.9
				c-0.5,0-0.9,0.5-1.4,0.8c-1.1,0.7-2.2,1.4-3.3,2.1c-0.3,0.2-0.3,0.3-0.3,0.6c0.5,2.2,0.9,4.5,1.3,6.8c-2.7,0.8-5.5,1.5-8.2,2.3
				c-0.8-2.3-1.5-4.5-2.2-6.7c-0.2-0.5-0.3-0.5-0.8-0.5c-1.5,0-3,0-4.5-0.1c-0.4,0-0.5,0.2-0.6,0.5c-0.9,2.2-1.6,4.4-2.5,6.5
				c-2.5-0.8-4.9-1.8-7.3-2.7c-0.9-0.4-0.9-0.4-0.6-1.4c0.6-1.9,1.2-3.8,1.7-5.7c0-0.2,0-0.5-0.1-0.6c-1.1-1-2.1-1.8-3.2-2.8
				c-0.3-0.3-0.5-0.3-0.9-0.1c-1.9,1.3-3.7,2.6-5.7,4c-1.7-2.3-3.4-4.7-5.1-7.1c2-1.5,3.9-3,5.9-4.5c0.1-0.1,0.2-0.4,0.1-0.6
				c-0.4-1.5-0.9-2.9-1.4-4.3c-0.1-0.3-0.3-0.4-0.6-0.4C11.1,37.1,9,37,6.8,36.9c-0.5,0-0.6-0.2-0.6-0.6c0.1-2.5,0.2-5,0.3-7.5
				c0-0.4,0.2-0.5,0.5-0.5c2.2-0.1,4.4-0.2,6.7-0.3c0.2,0,0.4-0.2,0.5-0.3c0.6-1.5,1.1-3,1.7-4.4c0.1-0.3,0-0.5-0.2-0.6
				c-1.6-1.3-3.1-2.6-4.7-4c-0.7-0.6-0.7-0.6-0.2-1.3c1.6-2,3.2-4.1,4.8-6.1c1.8,1.4,3.7,2.5,5.5,3.8c0.3,0.2,0.5,0.2,0.8,0
				c1.2-0.8,2.5-1.6,3.7-2.4c0.4-0.2,0.5-0.4,0.4-0.9c-0.5-2.2-1-4.4-1.4-6.6c2.4-0.9,5-1.5,7.5-2.3c0.5-0.2,0.8-0.1,1,0.5
				c0.7,2,1.4,3.9,2.1,5.8c0.1,0.1,0.3,0.3,0.5,0.3c1.6,0,3.2,0,4.8,0.1c0.4,0,0.6-0.1,0.7-0.4c0.8-2.1,1.7-4.2,2.6-6.3
				c2.7,0.9,5.3,1.9,8,2.8c-0.6,2.3-1.2,4.6-1.7,6.9c0,0.2,0.1,0.5,0.2,0.6c1.1,0.9,2.2,1.8,3.3,2.7c0.1,0.1,0.4,0.2,0.5,0.1
				c2-1.2,3.9-2.3,6-3.6c1.7,2.3,3.4,4.6,5.1,6.9c-1.9,1.6-3.8,3-5.6,4.6c-0.1,0.1-0.2,0.4-0.2,0.5c0.4,1.3,0.8,2.5,1.2,3.8
				c0.1,0.4,0.3,0.5,0.7,0.6c2.2,0.2,4.5,0.4,6.8,0.7v8.5c-2.4,0.1-4.7,0.2-7.1,0.3c-0.4,0-0.6,0.2-0.7,0.5c-0.5,1.3-1,2.6-1.5,3.9
				c-0.2,0.4,0,0.6,0.2,0.9C60.8,45,62.5,46.5,64.3,48.1L64.3,48.1z M37,50.9c10,0,18.1-7.8,18.4-17.6c0.3-9.3-7.2-18.4-17.8-18.5
				c-10.2-0.1-18.4,8.4-18.1,18.8C19.7,42.9,27.3,50.9,37,50.9z"/>
			<path className="st1" d="M45.4,28.9h-1.1V28c1.7,0,3.5-0.1,5.2,0.1c1.9,0.2,3.1,1.6,3,3.3c-0.2,3-3.1,3.2-5.6,3.1v3
				c0.6,0.1,1.2,0.2,1.8,0.3v0.7c-1.5,0-2.9,0-4.3,0c-0.1,0-0.3-0.2-0.4-0.4c0.1-0.1,0.2-0.2,0.2-0.2c0.8-0.3,1.2-1,1.2-1.8
				C45.4,33.7,45.4,31.3,45.4,28.9L45.4,28.9z M47,29.1c-0.2,0.9,0,1.9-0.1,2.9c0,1.5,0,1.5,1.5,1.5c2.2,0.2,3.2-2.4,2-4
				C49.5,28.5,48.1,29.1,47,29.1z"/>
			<path className="st1" d="M42.8,38.4h-4.1c-0.3-0.5,0.1-0.6,0.4-0.7c0.3-0.1,0.6-0.2,1-0.3c-0.3-0.7-0.5-1.3-0.8-1.9
				c0-0.1-0.3-0.2-0.4-0.2c-1.2,0-2.5,0-3.7,0c-0.1,0-0.3,0.1-0.4,0.2c-0.3,0.7-0.5,1.3-0.8,2c0.7,0.2,2-0.2,1.6,0.9h-4
				c-0.2-0.3-0.1-0.5,0.3-0.6c0.7-0.1,1.1-0.6,1.3-1.3c1.1-2.8,2.4-5.5,3.4-8.4c0.3-0.1,0.7-0.2,1.1-0.4c1.3,3.2,2.6,6.2,3.8,9.4
				c0.2,0.4,0.4,0.6,0.8,0.5C42.9,37.6,43.1,37.8,42.8,38.4L42.8,38.4z M37.1,29.7c-0.6,1.6-1.2,3-1.8,4.5h3.5
				C38.3,32.7,37.7,31.3,37.1,29.7L37.1,29.7z"/>
			<path className="st1" d="M26.1,29.1h-2.6c-0.1,0.5-0.2,1-0.2,1.6h-0.9c0-0.9-0.1-1.7-0.1-2.6h9.2c0,0.9-0.1,1.7-0.1,2.5
				c-0.9,0.2-0.9,0.2-1-0.6c0-0.3-0.1-0.6-0.1-0.9h-2.6v8.4c0.6,0.1,1.1,0.2,1.7,0.2v0.7c-1.6,0-3.1,0-4.7,0c-0.1,0-0.2-0.2-0.4-0.4
				c0.7-0.3,1.6-0.3,1.8-0.9C26.1,34.5,26.3,31.8,26.1,29.1L26.1,29.1z"/>
		</g>
	</g>
</g>
</symbol>

<symbol id="undraw_data_processing_yrrv" data-name="Layer 1" viewBox="0 0 855.41839 610.77534"><circle cx="39.53587" cy="110.72662" r="13.63057" fill="currentColor"/><circle cx="80.42757" cy="110.72662" r="13.63057" fill="currentColor"/><circle cx="121.31927" cy="110.72662" r="13.63057" fill="currentColor"/><circle cx="162.21097" cy="110.72662" r="13.63057" fill="currentColor"/><circle cx="203.10267" cy="110.72662" r="13.63057" fill="currentColor"/><circle cx="243.99437" cy="110.72662" r="13.63057" fill="currentColor"/><circle cx="284.88607" cy="110.72662" r="13.63057" fill="currentColor"/><path d="M488.67447,271.93783H180.32909a5.55346,5.55346,0,0,1-5.54693-5.54693V244.28714a5.55345,5.55345,0,0,1,5.54693-5.54693H488.67447a5.55346,5.55346,0,0,1,5.54693,5.54693V266.3909A5.55347,5.55347,0,0,1,488.67447,271.93783ZM180.32909,240.959a3.3318,3.3318,0,0,0-3.32816,3.32816V266.3909a3.3318,3.3318,0,0,0,3.32816,3.32815H488.67447a3.33179,3.33179,0,0,0,3.32815-3.32815V244.28714a3.33179,3.33179,0,0,0-3.32815-3.32816Z" transform="translate(-172.29081 -144.61233)" fill="currentColor"/><path d="M246.31694,147.79938a3.19065,3.19065,0,0,1,3.187,3.187V220.049a3.19065,3.19065,0,0,1-3.187,3.187h-67.652a3.19065,3.19065,0,0,1-3.187-3.187V150.98643a3.19065,3.19065,0,0,1,3.187-3.187h67.652m0-3.18705h-67.652a6.3741,6.3741,0,0,0-6.3741,6.3741V220.049a6.3741,6.3741,0,0,0,6.3741,6.3741h67.652a6.37411,6.37411,0,0,0,6.3741-6.3741V150.98643a6.37411,6.37411,0,0,0-6.3741-6.3741Z" transform="translate(-172.29081 -144.61233)" fill="currentColor"/><path d="M235.76469,165.95293H190.62778a1.59353,1.59353,0,1,1,0-3.187h45.13691a1.59353,1.59353,0,1,1,0,3.187Z" transform="translate(-172.29081 -144.61233)" fill="currentColor"/><path d="M235.76469,177.23755H190.62778a1.59353,1.59353,0,1,1,0-3.187h45.13691a1.59353,1.59353,0,1,1,0,3.187Z" transform="translate(-172.29081 -144.61233)" fill="currentColor"/><path d="M235.76469,188.52139H190.62778a1.59353,1.59353,0,1,1,0-3.187h45.13691a1.59353,1.59353,0,1,1,0,3.187Z" transform="translate(-172.29081 -144.61233)" fill="currentColor"/><path d="M235.76469,199.806H190.62778a1.59353,1.59353,0,1,1,0-3.187h45.13691a1.59353,1.59353,0,1,1,0,3.187Z" transform="translate(-172.29081 -144.61233)" fill="currentColor"/><path d="M235.76469,211.09063H190.62778a1.59353,1.59353,0,1,1,0-3.18706h45.13691a1.59353,1.59353,0,0,1,0,3.18706Z" transform="translate(-172.29081 -144.61233)" fill="currentColor"/><path d="M477.37812,147.79938a3.19065,3.19065,0,0,1,3.187,3.187V220.049a3.19065,3.19065,0,0,1-3.187,3.187h-67.652a3.19065,3.19065,0,0,1-3.187-3.187V150.98643a3.19065,3.19065,0,0,1,3.187-3.187h67.652m0-3.18705h-67.652a6.3741,6.3741,0,0,0-6.3741,6.3741V220.049a6.3741,6.3741,0,0,0,6.3741,6.3741h67.652a6.3741,6.3741,0,0,0,6.3741-6.3741V150.98643a6.3741,6.3741,0,0,0-6.3741-6.3741Z" transform="translate(-172.29081 -144.61233)" fill="currentColor"/><path d="M466.82588,165.95293H421.689a1.59353,1.59353,0,1,1,0-3.187h45.13692a1.59353,1.59353,0,0,1,0,3.187Z" transform="translate(-172.29081 -144.61233)" fill="currentColor"/><path d="M466.82588,177.23755H421.689a1.59353,1.59353,0,1,1,0-3.187h45.13692a1.59353,1.59353,0,0,1,0,3.187Z" transform="translate(-172.29081 -144.61233)" fill="currentColor"/><path d="M466.82588,188.52139H421.689a1.59353,1.59353,0,1,1,0-3.187h45.13692a1.59353,1.59353,0,0,1,0,3.187Z" transform="translate(-172.29081 -144.61233)" fill="currentColor"/><path d="M466.82588,199.806H421.689a1.59353,1.59353,0,1,1,0-3.187h45.13692a1.59353,1.59353,0,0,1,0,3.187Z" transform="translate(-172.29081 -144.61233)" fill="currentColor"/><path d="M466.82588,211.09063H421.689a1.59353,1.59353,0,1,1,0-3.18706h45.13692a1.59353,1.59353,0,0,1,0,3.18706Z" transform="translate(-172.29081 -144.61233)" fill="currentColor"/><path d="M707.317,280.59077a3.19065,3.19065,0,0,1,3.187,3.187v69.06255a3.19066,3.19066,0,0,1-3.187,3.187H639.665a3.19066,3.19066,0,0,1-3.187-3.187V283.77782a3.19065,3.19065,0,0,1,3.187-3.187h67.652m0-3.187H639.665a6.3741,6.3741,0,0,0-6.3741,6.3741v69.06255a6.3741,6.3741,0,0,0,6.3741,6.3741h67.652a6.37411,6.37411,0,0,0,6.3741-6.3741V283.77782a6.3741,6.3741,0,0,0-6.3741-6.3741Z" transform="translate(-172.29081 -144.61233)" fill="currentColor"/><path d="M696.76476,298.74432H651.62784a1.59353,1.59353,0,1,1,0-3.187h45.13692a1.59353,1.59353,0,0,1,0,3.187Z" transform="translate(-172.29081 -144.61233)" fill="currentColor"/><path d="M696.76476,310.02894H651.62784a1.59353,1.59353,0,0,1,0-3.18706h45.13692a1.59353,1.59353,0,0,1,0,3.18706Z" transform="translate(-172.29081 -144.61233)" fill="currentColor"/><path d="M696.76476,321.31278H651.62784a1.59352,1.59352,0,1,1,0-3.187h45.13692a1.59353,1.59353,0,0,1,0,3.187Z" transform="translate(-172.29081 -144.61233)" fill="currentColor"/><path d="M696.76476,332.59739H651.62784a1.59353,1.59353,0,1,1,0-3.187h45.13692a1.59353,1.59353,0,0,1,0,3.187Z" transform="translate(-172.29081 -144.61233)" fill="currentColor"/><path d="M696.76476,343.882H651.62784a1.59353,1.59353,0,1,1,0-3.187h45.13692a1.59353,1.59353,0,0,1,0,3.187Z" transform="translate(-172.29081 -144.61233)" fill="currentColor"/><path d="M362.73282,226.42308H293.30943a7.08972,7.08972,0,0,1-7.08139-7.08138V169.66541a7.08988,7.08988,0,0,1,7.08139-7.08216h69.42339a7.09,7.09,0,0,1,7.08217,7.08216V219.3417A7.08988,7.08988,0,0,1,362.73282,226.42308ZM293.30943,165.7703a3.89917,3.89917,0,0,0-3.89434,3.89511V219.3417a3.89851,3.89851,0,0,0,3.89434,3.89433h69.42339a3.89917,3.89917,0,0,0,3.89511-3.89433V169.66541a3.89983,3.89983,0,0,0-3.89511-3.89511Z" transform="translate(-172.29081 -144.61233)" fill="currentColor"/><path d="M350.59,184.81246H305.45305a1.59353,1.59353,0,0,1,0-3.187H350.59a1.59353,1.59353,0,1,1,0,3.187Z" transform="translate(-172.29081 -144.61233)" fill="currentColor"/><path d="M350.59,196.09708H305.45305a1.59353,1.59353,0,0,1,0-3.187H350.59a1.59353,1.59353,0,1,1,0,3.187Z" transform="translate(-172.29081 -144.61233)" fill="currentColor"/><path d="M350.59,207.38092H305.45305a1.59353,1.59353,0,0,1,0-3.187H350.59a1.59353,1.59353,0,1,1,0,3.187Z" transform="translate(-172.29081 -144.61233)" fill="currentColor"/><path d="M593.09111,253.95025,526.41486,234.6141a7.08971,7.08971,0,0,1-4.82882-8.77351l13.83608-47.71054a7.08988,7.08988,0,0,1,8.77372-4.82958l66.67625,19.33615a7.09,7.09,0,0,1,4.82935,8.77447l-13.83608,47.71055A7.08988,7.08988,0,0,1,593.09111,253.95025Zm-49.78294-77.58884a3.89916,3.89916,0,0,0-4.82511,2.65631L524.647,226.72827a3.89851,3.89851,0,0,0,2.65557,4.8249l66.67624,19.33614a3.89918,3.89918,0,0,0,4.82565-2.65535l13.83608-47.71054a3.89985,3.89985,0,0,0-2.65609-4.82587Z" transform="translate(-172.29081 -144.61233)" fill="currentColor"/><path d="M593.01835,210.60411l-43.3508-12.57175a1.59353,1.59353,0,0,1,.88767-3.06094L593.906,207.54318a1.59352,1.59352,0,1,1-.88768,3.06093Z" transform="translate(-172.29081 -144.61233)" fill="currentColor"/><path d="M589.87531,221.44219,546.5245,208.87043a1.59352,1.59352,0,1,1,.88767-3.06093L590.763,218.38125a1.59353,1.59353,0,0,1-.88767,3.06094Z" transform="translate(-172.29081 -144.61233)" fill="currentColor"/><path d="M586.73248,232.27951l-43.35081-12.57175a1.59353,1.59353,0,0,1,.88767-3.06094l43.35081,12.57176a1.59352,1.59352,0,0,1-.88767,3.06093Z" transform="translate(-172.29081 -144.61233)" fill="currentColor"/><rect x="156.10589" y="607.77534" fill="currentColor"/><polygon points="562.14 603.085 448.421 603.085 452.276 552.973 558.285 552.973 562.14 603.085" fill="currentColor"/><rect x="442.63878" y="597.3034" fill="currentColor"/><path d="M895.37073,374.74021H460.73514a11.56458,11.56458,0,0,0-11.56458,11.56458h0V651.3265H906.93533V386.30479a11.56457,11.56457,0,0,0-11.56456-11.56458Z" transform="translate(-172.29081 -144.61233)" fill="currentColor"/><path d="M449.17056,651.3265v43.36719a11.56457,11.56457,0,0,0,11.56458,11.56457H895.37073a11.56459,11.56459,0,0,0,11.5646-11.56457h0V651.3265Z" transform="translate(-172.29081 -144.61233)" fill="currentColor"/><rect x="300.00891" y="254.22076" fill="currentColor"/><circle cx="506.244" cy="533.69821" r="11.56459" fill="currentColor"/><circle cx="312.86987" cy="261.79534" r="2.19466" fill="currentColor"/><circle cx="321.20026" cy="261.79534" r="2.19466" fill="currentColor"/><circle cx="329.53064" cy="261.79534" r="2.19466" fill="currentColor"/><rect x="310.6752" y="269.25275" fill="currentColor"/><path d="M508.885,443.41111a1.37973,1.37973,0,0,0-1.37842,1.37842v69.67578a1.37973,1.37973,0,0,0,1.37842,1.37841H589.3493a1.37973,1.37973,0,0,0,1.37842-1.37841V444.78953a1.37973,1.37973,0,0,0-1.37842-1.37842Z" transform="translate(-172.29081 -144.61233)" fill="currentColor"/><path d="M638.08075,443.63523a1.37984,1.37984,0,0,0-1.37891,1.37842v69.45166a1.37984,1.37984,0,0,0,1.37891,1.37841h80.208a1.37963,1.37963,0,0,0,1.37793-1.37841V445.01365a1.37963,1.37963,0,0,0-1.37793-1.37842Z" transform="translate(-172.29081 -144.61233)" fill="currentColor"/><path d="M765.92157,442.9072a1.37963,1.37963,0,0,0-1.37793,1.37842v70.17969a1.37962,1.37962,0,0,0,1.37793,1.37841h81.042a1.37962,1.37962,0,0,0,1.37793-1.37841V444.28562a1.37963,1.37963,0,0,0-1.37793-1.37842Z" transform="translate(-172.29081 -144.61233)" fill="currentColor"/><path d="M510.35614,550.333a2.84986,2.84986,0,0,0,0,5.69971h75.65234a2.84986,2.84986,0,0,0,0-5.69971Z" transform="translate(-172.29081 -144.61233)" fill="currentColor"/><path d="M510.35614,563.88865a2.8501,2.8501,0,0,0,0,5.70019h34.062a2.8501,2.8501,0,0,0,0-5.70019Z" transform="translate(-172.29081 -144.61233)" fill="currentColor"/><path d="M640.94012,550.333a2.84986,2.84986,0,0,0,0,5.69971h75.65235a2.84986,2.84986,0,0,0,0-5.69971Z" transform="translate(-172.29081 -144.61233)" fill="currentColor"/><path d="M640.94012,563.88865a2.8501,2.8501,0,0,0,0,5.70019h34.0625a2.8501,2.8501,0,0,0,0-5.70019Z" transform="translate(-172.29081 -144.61233)" fill="currentColor"/><path d="M768.26044,550.333a2.84986,2.84986,0,0,0,0,5.69971h75.65234a2.84986,2.84986,0,0,0,0-5.69971Z" transform="translate(-172.29081 -144.61233)" fill="currentColor"/><path d="M510.35614,536.333a2.84986,2.84986,0,0,0,0,5.69971h75.65234a2.84986,2.84986,0,0,0,0-5.69971Z" transform="translate(-172.29081 -144.61233)" fill="currentColor"/><path d="M640.94012,536.333a2.84986,2.84986,0,0,0,0,5.69971h75.65235a2.84986,2.84986,0,0,0,0-5.69971Z" transform="translate(-172.29081 -144.61233)" fill="currentColor"/><path d="M768.26044,536.333a2.84986,2.84986,0,0,0,0,5.69971h75.65234a2.84986,2.84986,0,0,0,0-5.69971Z" transform="translate(-172.29081 -144.61233)" fill="currentColor"/><path d="M768.26044,563.88865a2.8501,2.8501,0,0,0,0,5.70019H802.322a2.8501,2.8501,0,0,0,0-5.70019Z" transform="translate(-172.29081 -144.61233)" fill="currentColor"/></symbol>
</svg>
