<?xml version="1.0" encoding="UTF-8"?>
<svg xmlns="http://www.w3.org/2000/svg" xmlns:xlink="http://www.w3.org/1999/xlink" width="0" height="0">
<symbol id="TapIcon" viewBox="0 0 185.84 176.59"><defs><style>.cls-1{fill:#77ced9;}.cls-1,.cls-2,.cls-3,.cls-4{stroke-width:0px;}.cls-2{fill:#272828;}.cls-3{fill:#121213;}.cls-4{fill:#dadada;}</style></defs><path class="cls-1" d="M114.06,76.05c-1.3-.24-2.41.44-3.6.77-2.68.73-3.55.4-4.67-2.08-.45-1.01-.68-2.12-.97-3.19-1.32-4.92-1.09-5.38,3.55-7.22,3.67-1.45,4.5-2.75,3.98-6.41-.26-1.81-.88-3.39-3.02-3.73-.6-.1-1.17-.4-1.75-.61-3.56-1.27-4.02-2.16-3.06-5.88.22-.84.38-1.69.64-2.52,1.29-4.03,2.54-4.68,6.58-3.43,3.8,1.18,4.54,1.03,6.18-1.21,2.54-3.49,2.56-4.57.12-7.95-2.35-3.26-2.18-4.23,1.12-6.67.6-.44,1.19-.9,1.79-1.34,3.4-2.57,4.56-2.37,7.29,1.01,1.43,1.76,2.52,4.05,5.71,2.77,3.59-1.44,4.61-2.43,4.72-6.16.14-4.3,1.04-5.18,5.36-5.22.5,0,1,0,1.5,0,4.83.02,5.67.83,5.8,5.56.11,3.87,2.77,6.35,6.65,6.17.89-.04,1.68-.47,2.25-1.17.79-.96,1.64-1.9,2.27-2.96,1.24-2.1,2.97-2.19,4.77-1.1,1.8,1.08,3.52,2.35,5.09,3.75,1.32,1.17,1.62,2.49.33,4.21-1.51,2.02-3.19,4.13-2.03,7.11,1.28,3.32,3.19,4.48,6.61,3.6,5.9-1.52,5.95-1.5,7.76,4.26.3.94.6,1.9.75,2.87.25,1.75-.02,3.18-2.14,3.71-1.19.3-2.32.91-3.39,1.53-2.18,1.25-2.99,3.17-2.71,5.67.25,2.32,1.53,3.51,3.7,4.07,1.07.28,2.05.88,3.07,1.34.85.39,1.48,1,1.5,1.97.05,3.2-.93,6.11-2.76,8.69-.68.96-1.67,1.42-2.94.77-.76-.39-1.63-.61-2.47-.82-3.04-.74-4.4-.24-6.1,2.17-2.03,2.87-2.04,3.58-.01,6.64.48.73.98,1.44,1.47,2.16,1.01,1.51.56,2.85-.6,4-.61.61-1.4,1.02-2.09,1.55-5.14,3.96-5.18,3.99-9.33-1.21-1.6-2-3.36-2.16-5.59-1.27-2.17.86-4.27,1.62-4.04,4.55.04.5,0,1,0,1.5,0,.37.01.75-.02,1.12-.31,3.06-2,4.07-6.74,4.01-4.35-.05-5.61-.91-5.88-4-.03-.37-.02-.75,0-1.12.25-5.35-.82-4.89-5.72-6.52-1.46-.49-2.65.41-3.63,1.41-.61.61-1.01,1.42-1.57,2.08-2.43,2.86-3.05,2.94-6.21.82-.31-.21-.64-.39-.94-.61-6.15-4.52-4.73-4.82-1.74-9.05,1.02-1.44,1.7-2.98.62-4.46-1.34-1.83-2.41-4.28-5.41-3.92ZM144.72,37.11c-10.83-.42-21.99,9.48-21.79,21.86.21,12.66,9.35,22.18,21.88,22.15,13.44-.02,22.2-10.34,22.24-22.24.04-10.79-9.2-22.09-22.33-21.78Z"/><path class="cls-3" d="M100.38,44.6c.28,1.89-.75,3.59-.94,5.42-.1.97-.83,1.43-1.88,1.35-.87-.07-1.75-.01-2.62-.01-19.58,0-39.16,0-58.75,0-.75,0-1.5,0-2.25,0-6.11.07-7.82,1.71-7.85,7.72-.04,8.11-.01,16.21-.01,24.32,0,10.73,0,21.45,0,32.18,0,1.37,0,2.75.12,4.11.32,3.58,2.32,5.38,5.86,5.31,35.41-.7,70.82-.11,106.23-.3,5.1-.03,6.56-1.36,6.78-6.57.14-3.24.18-6.49-.01-9.72-.12-2.13.72-2.92,2.69-3.01,1.34-.06,2.68-.23,4.31-.37,0,5.78,0,11.36,0,16.94,0,1.1-.75,2.11.61,3.25.7.58.7,2.8-1.65,2.5-1.18-.15-1.74.8-2.49,1.41-2.51,2.03-5.37,3.08-8.59,3.15-1.37.03-2.74.05-4.11.05-34.42,0-68.85-.03-103.27-.03-8.62,0-13.77-4.97-13.79-13.58-.05-20.33.11-40.66-.09-60.99-.07-7.31,5.35-13.41,12.89-13.49,5.49-.06,10.98-.04,16.46-.04,16.21,0,32.43-.01,48.64.02,1.2,0,2.48-.35,3.71.4Z"/><path class="cls-2" d="M12.55,140.84h145.42c.29,5.31-3.1,9.16-8.35,9.31-5.86.17-11.72.14-17.58.15-8.86.02-17.71-.02-26.57.03-1.67.01-2.79-.19-3.21-2.16-.51-2.39-2.26-3.3-4.69-3.39-7.98-.28-15.95-.15-23.93-.07-2.7.03-4.69,1.19-5.17,3.89-.28,1.55-.95,1.81-2.21,1.71-.5-.04-1,0-1.5,0-13.22,0-26.44,0-39.66,0-2.12,0-4.2-.08-6.25-.84-3.87-1.44-6.09-4.02-6.31-8.64Z"/><path class="cls-1" d="M12.16,84.46c-3.04-4.58-4.91-9.52-6.84-14.44C.92,58.83-.68,47.2.26,35.28c.63-8.07,3.44-15.39,8.76-21.74C15.9,5.35,24.71,1.49,35.18.36c13.74-1.48,26.56,1.79,39.2,6.55,9.35,3.53,18.12,8.18,26.46,13.65,5.08,3.33,10.45,6.35,12.98,12.36.14.34.44.61.6.94.73,1.49.07,2.74-.95,3.69-1.04.96-1.81-.16-2.54-.73-5.37-4.23-10.83-8.34-16.53-12.12-14.72-9.78-30.33-17.71-48-20.28-8.66-1.26-17.62-1.61-25.84,2.7C11.64,11.78,6.15,18.94,4.52,29.06c-1.5,9.29-.33,18.3,2.2,27.21,1.22,4.3,2.57,8.56,4.35,12.68.79,1.83,1.18,3.77,1.13,5.81-.09,3.23-.02,6.47-.02,9.71Z"/><path class="cls-1" d="M78.17,156.35c6.69-.49,12.78-.32,18.75,3.46,9.31,5.89,19.87,9.09,30.64,11.11,8.85,1.66,17.7,1.54,26.35-1.95,9.61-3.87,16.95-13.87,17.73-25.12.94-13.48-2.14-26.12-7.42-38.37-.67-1.56-1.58-3.09-1.59-4.84.3-.16.51-.37.72-.37,5.21-.09,7.15,2.95,8.59,7.63,3.1,10.05,5.17,20.17,4.82,30.71-.6,18.3-12.16,33.62-31.1,37.02-10.32,1.85-20.56.94-30.61-1.8-10.22-2.78-19.97-6.78-29.11-12.19-1.82-1.07-3.76-1.93-5.62-2.94-.83-.45-1.94-.62-2.15-2.35Z"/><path class="cls-1" d="M98.92,102.52c-2.22-.12-3.54,1.6-2.34,3.52,1.21,1.93.1,2.67-1.02,3.68-1.2,1.07-2.1.63-3.24-.29-2.24-1.82-3.25-1.58-3.86.98-.39,1.66-1.09,2.34-2.72,2.38-1.61.05-2.3-.42-2.71-2.19-.61-2.61-2.22-2.99-4.32-1.2-1.31,1.12-2.29,1.28-3.54.12-1.04-.97-1.85-1.68-.82-3.41,1.29-2.17-.02-3.92-2.51-3.42-1.88.38-2.41-.35-2.93-1.86-.44-1.31-.6-2.14.81-3.11,3.01-2.07,2.94-2.63-.02-4.61-.77-.51-1.57-1.01-1.25-2.02.36-1.15.56-2.52,1.98-2.95.46-.14.99-.03,1.48-.08,2.97-.27,3.16-.5,2.52-3.38-.31-1.39-.61-2.63.92-3.6,1.51-.96,2.41-.31,3.58.68,1.6,1.36,3.12.86,3.94-1.32.54-1.44.74-2.99,2.78-2.8,1.77.17,2.39,1.29,2.81,2.94.54,2.12,2.07,2.57,3.75.98,1.46-1.39,2.58-1.01,3.96-.17,1.5.91.94,1.94.43,3.18-.92,2.27-.17,3.47,2.42,3.41,2.13-.05,2.91,1.05,3.43,2.68.52,1.63-.68,2-1.83,2.66-2.11,1.22-2.13,2.85.24,4.17,2.28,1.28,1.81,2.63.9,4.28-.66,1.19-1.68,1.38-2.84.72ZM94.5,95.55c.04-5.31-3.5-9.03-8.64-9.1-5.59-.08-9.07,3.38-9.46,8.72-.29,4.06,3.42,9.24,9.09,9.31,4.93.06,8.98-3.98,9.01-8.93Z"/><path class="cls-1" d="M41.7,79.17c.55-1.15.17-1.97-1-2.31-2.52-.75-2.1-2.2-.71-3.52,1.26-1.21,1.2-2.05.29-3.47-1.03-1.61-.56-2.89,1.7-2.78,1.59.08,2.14-.77,2.31-2.25.23-2.05,1.23-2.58,2.98-1.23,1.1.85,2.12.63,2.81-.57,1.06-1.83,2.24-1.44,3.04.03.76,1.4,1.6,2.09,3.22,1.77,1.96-.39,2.4.76,2.2,2.39-.17,1.4.17,2.36,1.69,2.84,1.92.6,1.76,2.13.6,3.08-1.43,1.17-1.88,1.87-.63,3.56,1.17,1.58.51,2.81-1.58,2.92-1.81.1-2.3.63-2.37,2.39-.08,1.97-1.08,2.73-2.92,1.26-1.16-.93-2.06-.59-3.22.4-2.1,1.81-2.45,1.7-3.46-.99-.55-1.46-1.18-1.03-2.23-.85-2.53.45-3.01-.1-2.75-2.66ZM50.46,79.12c3.33-.05,5.92-2.68,5.83-5.9-.09-3.09-2.98-6.25-5.93-6.08-4.2.25-6.24,2.89-6.08,6.5.15,3.29,2.62,5.53,6.18,5.48Z"/><path class="cls-4" d="M145.16,45.35c7.25-.94,13.9,7.22,13.8,13.54-.13,8.68-7.21,14.4-14.46,14.21-7.72-.21-13.4-6.08-13.37-14.26.02-8.03,5.71-13.5,14.02-13.49Z"/></symbol>
<symbol id="TapIcon2" viewBox="0 0 185.84 176.59"><path d="M114.06,76.05c-1.3-.24-2.41.44-3.6.77-2.68.73-3.55.4-4.67-2.08-.45-1.01-.68-2.12-.97-3.19-1.32-4.92-1.09-5.38,3.55-7.22,3.67-1.45,4.5-2.75,3.98-6.41-.26-1.81-.88-3.39-3.02-3.73-.6-.1-1.17-.4-1.75-.61-3.56-1.27-4.02-2.16-3.06-5.88.22-.84.38-1.69.64-2.52,1.29-4.03,2.54-4.68,6.58-3.43,3.8,1.18,4.54,1.03,6.18-1.21,2.54-3.49,2.56-4.57.12-7.95-2.35-3.26-2.18-4.23,1.12-6.67.6-.44,1.19-.9,1.79-1.34,3.4-2.57,4.56-2.37,7.29,1.01,1.43,1.76,2.52,4.05,5.71,2.77,3.59-1.44,4.61-2.43,4.72-6.16.14-4.3,1.04-5.18,5.36-5.22.5,0,1,0,1.5,0,4.83.02,5.67.83,5.8,5.56.11,3.87,2.77,6.35,6.65,6.17.89-.04,1.68-.47,2.25-1.17.79-.96,1.64-1.9,2.27-2.96,1.24-2.1,2.97-2.19,4.77-1.1,1.8,1.08,3.52,2.35,5.09,3.75,1.32,1.17,1.62,2.49.33,4.21-1.51,2.02-3.19,4.13-2.03,7.11,1.28,3.32,3.19,4.48,6.61,3.6,5.9-1.52,5.95-1.5,7.76,4.26.3.94.6,1.9.75,2.87.25,1.75-.02,3.18-2.14,3.71-1.19.3-2.32.91-3.39,1.53-2.18,1.25-2.99,3.17-2.71,5.67.25,2.32,1.53,3.51,3.7,4.07,1.07.28,2.05.88,3.07,1.34.85.39,1.48,1,1.5,1.97.05,3.2-.93,6.11-2.76,8.69-.68.96-1.67,1.42-2.94.77-.76-.39-1.63-.61-2.47-.82-3.04-.74-4.4-.24-6.1,2.17-2.03,2.87-2.04,3.58-.01,6.64.48.73.98,1.44,1.47,2.16,1.01,1.51.56,2.85-.6,4-.61.61-1.4,1.02-2.09,1.55-5.14,3.96-5.18,3.99-9.33-1.21-1.6-2-3.36-2.16-5.59-1.27-2.17.86-4.27,1.62-4.04,4.55.04.5,0,1,0,1.5,0,.37.01.75-.02,1.12-.31,3.06-2,4.07-6.74,4.01-4.35-.05-5.61-.91-5.88-4-.03-.37-.02-.75,0-1.12.25-5.35-.82-4.89-5.72-6.52-1.46-.49-2.65.41-3.63,1.41-.61.61-1.01,1.42-1.57,2.08-2.43,2.86-3.05,2.94-6.21.82-.31-.21-.64-.39-.94-.61-6.15-4.52-4.73-4.82-1.74-9.05,1.02-1.44,1.7-2.98.62-4.46-1.34-1.83-2.41-4.28-5.41-3.92ZM144.72,37.11c-10.83-.42-21.99,9.48-21.79,21.86.21,12.66,9.35,22.18,21.88,22.15,13.44-.02,22.2-10.34,22.24-22.24.04-10.79-9.2-22.09-22.33-21.78Z" style="fill:#77ced9; stroke-width:0px;"/><path d="M100.38,44.6c.28,1.89-.75,3.59-.94,5.42-.1.97-.83,1.43-1.88,1.35-.87-.07-1.75-.01-2.62-.01-19.58,0-39.16,0-58.75,0-.75,0-1.5,0-2.25,0-6.11.07-7.82,1.71-7.85,7.72-.04,8.11-.01,16.21-.01,24.32,0,10.73,0,21.45,0,32.18,0,1.37,0,2.75.12,4.11.32,3.58,2.32,5.38,5.86,5.31,35.41-.7,70.82-.11,106.23-.3,5.1-.03,6.56-1.36,6.78-6.57.14-3.24.18-6.49-.01-9.72-.12-2.13.72-2.92,2.69-3.01,1.34-.06,2.68-.23,4.31-.37,0,5.78,0,11.36,0,16.94,0,1.1-.75,2.11.61,3.25.7.58.7,2.8-1.65,2.5-1.18-.15-1.74.8-2.49,1.41-2.51,2.03-5.37,3.08-8.59,3.15-1.37.03-2.74.05-4.11.05-34.42,0-68.85-.03-103.27-.03-8.62,0-13.77-4.97-13.79-13.58-.05-20.33.11-40.66-.09-60.99-.07-7.31,5.35-13.41,12.89-13.49,5.49-.06,10.98-.04,16.46-.04,16.21,0,32.43-.01,48.64.02,1.2,0,2.48-.35,3.71.4Z" style="fill:#121213; stroke-width:0px;"/><path d="M12.55,140.84h145.42c.29,5.31-3.1,9.16-8.35,9.31-5.86.17-11.72.14-17.58.15-8.86.02-17.71-.02-26.57.03-1.67.01-2.79-.19-3.21-2.16-.51-2.39-2.26-3.3-4.69-3.39-7.98-.28-15.95-.15-23.93-.07-2.7.03-4.69,1.19-5.17,3.89-.28,1.55-.95,1.81-2.21,1.71-.5-.04-1,0-1.5,0-13.22,0-26.44,0-39.66,0-2.12,0-4.2-.08-6.25-.84-3.87-1.44-6.09-4.02-6.31-8.64Z" style="fill:#272828; stroke-width:0px;"/><path d="M12.16,84.46c-3.04-4.58-4.91-9.52-6.84-14.44C.92,58.83-.68,47.2.26,35.28c.63-8.07,3.44-15.39,8.76-21.74C15.9,5.35,24.71,1.49,35.18.36c13.74-1.48,26.56,1.79,39.2,6.55,9.35,3.53,18.12,8.18,26.46,13.65,5.08,3.33,10.45,6.35,12.98,12.36.14.34.44.61.6.94.73,1.49.07,2.74-.95,3.69-1.04.96-1.81-.16-2.54-.73-5.37-4.23-10.83-8.34-16.53-12.12-14.72-9.78-30.33-17.71-48-20.28-8.66-1.26-17.62-1.61-25.84,2.7C11.64,11.78,6.15,18.94,4.52,29.06c-1.5,9.29-.33,18.3,2.2,27.21,1.22,4.3,2.57,8.56,4.35,12.68.79,1.83,1.18,3.77,1.13,5.81-.09,3.23-.02,6.47-.02,9.71Z" style="fill:#77ced9; stroke-width:0px;"/><path d="M78.17,156.35c6.69-.49,12.78-.32,18.75,3.46,9.31,5.89,19.87,9.09,30.64,11.11,8.85,1.66,17.7,1.54,26.35-1.95,9.61-3.87,16.95-13.87,17.73-25.12.94-13.48-2.14-26.12-7.42-38.37-.67-1.56-1.58-3.09-1.59-4.84.3-.16.51-.37.72-.37,5.21-.09,7.15,2.95,8.59,7.63,3.1,10.05,5.17,20.17,4.82,30.71-.6,18.3-12.16,33.62-31.1,37.02-10.32,1.85-20.56.94-30.61-1.8-10.22-2.78-19.97-6.78-29.11-12.19-1.82-1.07-3.76-1.93-5.62-2.94-.83-.45-1.94-.62-2.15-2.35Z" style="fill:#77ced9; stroke-width:0px;"/><path d="M98.92,102.52c-2.22-.12-3.54,1.6-2.34,3.52,1.21,1.93.1,2.67-1.02,3.68-1.2,1.07-2.1.63-3.24-.29-2.24-1.82-3.25-1.58-3.86.98-.39,1.66-1.09,2.34-2.72,2.38-1.61.05-2.3-.42-2.71-2.19-.61-2.61-2.22-2.99-4.32-1.2-1.31,1.12-2.29,1.28-3.54.12-1.04-.97-1.85-1.68-.82-3.41,1.29-2.17-.02-3.92-2.51-3.42-1.88.38-2.41-.35-2.93-1.86-.44-1.31-.6-2.14.81-3.11,3.01-2.07,2.94-2.63-.02-4.61-.77-.51-1.57-1.01-1.25-2.02.36-1.15.56-2.52,1.98-2.95.46-.14.99-.03,1.48-.08,2.97-.27,3.16-.5,2.52-3.38-.31-1.39-.61-2.63.92-3.6,1.51-.96,2.41-.31,3.58.68,1.6,1.36,3.12.86,3.94-1.32.54-1.44.74-2.99,2.78-2.8,1.77.17,2.39,1.29,2.81,2.94.54,2.12,2.07,2.57,3.75.98,1.46-1.39,2.58-1.01,3.96-.17,1.5.91.94,1.94.43,3.18-.92,2.27-.17,3.47,2.42,3.41,2.13-.05,2.91,1.05,3.43,2.68.52,1.63-.68,2-1.83,2.66-2.11,1.22-2.13,2.85.24,4.17,2.28,1.28,1.81,2.63.9,4.28-.66,1.19-1.68,1.38-2.84.72ZM94.5,95.55c.04-5.31-3.5-9.03-8.64-9.1-5.59-.08-9.07,3.38-9.46,8.72-.29,4.06,3.42,9.24,9.09,9.31,4.93.06,8.98-3.98,9.01-8.93Z" style="fill:#77ced9; stroke-width:0px;"/><path d="M41.7,79.17c.55-1.15.17-1.97-1-2.31-2.52-.75-2.1-2.2-.71-3.52,1.26-1.21,1.2-2.05.29-3.47-1.03-1.61-.56-2.89,1.7-2.78,1.59.08,2.14-.77,2.31-2.25.23-2.05,1.23-2.58,2.98-1.23,1.1.85,2.12.63,2.81-.57,1.06-1.83,2.24-1.44,3.04.03.76,1.4,1.6,2.09,3.22,1.77,1.96-.39,2.4.76,2.2,2.39-.17,1.4.17,2.36,1.69,2.84,1.92.6,1.76,2.13.6,3.08-1.43,1.17-1.88,1.87-.63,3.56,1.17,1.58.51,2.81-1.58,2.92-1.81.1-2.3.63-2.37,2.39-.08,1.97-1.08,2.73-2.92,1.26-1.16-.93-2.06-.59-3.22.4-2.1,1.81-2.45,1.7-3.46-.99-.55-1.46-1.18-1.03-2.23-.85-2.53.45-3.01-.1-2.75-2.66ZM50.46,79.12c3.33-.05,5.92-2.68,5.83-5.9-.09-3.09-2.98-6.25-5.93-6.08-4.2.25-6.24,2.89-6.08,6.5.15,3.29,2.62,5.53,6.18,5.48Z" style="fill:#77ced9; stroke-width:0px;"/><path d="M145.16,45.35c7.25-.94,13.9,7.22,13.8,13.54-.13,8.68-7.21,14.4-14.46,14.21-7.72-.21-13.4-6.08-13.37-14.26.02-8.03,5.71-13.5,14.02-13.49Z" style="fill:#dadada; stroke-width:0px;"/></symbol>
<symbol id="TapLogoTextHerot" viewBox="0 0 342.88 64.79"><text transform="translate(0 59.97) scale(1.03 1)" style="fill:#b8c9d3; font-family:AdobeClean-Bold, &apos;Adobe Clean&apos;; font-size:20px; font-weight:700;"><tspan x="0" y="0" style="letter-spacing:.31em;">A</tspan><tspan x="18.22" y="0" style="letter-spacing:.32em;">U</tspan><tspan x="37.74" y="0" style="letter-spacing:.31em;">T</tspan><tspan x="54.76" y="0" style="letter-spacing:.32em;">O</tspan><tspan x="75.02" y="0" style="letter-spacing:.32em;">M</tspan><tspan x="97.94" y="0" style="letter-spacing:.25em;">A</tspan><tspan x="115.06" y="0" style="letter-spacing:.32em;">TION </tspan><tspan x="195.74" y="0" style="letter-spacing:.27em;">P</tspan><tspan x="212.54" y="0" style="letter-spacing:.32em;">A</tspan><tspan x="231.14" y="0" style="letter-spacing:.32em;">R</tspan><tspan x="249.22" y="0" style="letter-spacing:.32em;">TN</tspan><tspan x="286.64" y="0" style="letter-spacing:.32em;">E</tspan><tspan x="303.64" y="0" style="letter-spacing:.35em;">R</tspan><tspan x="322.38" y="0" style="letter-spacing:.32em;">S</tspan></text><text transform="translate(104.47 39.21)" style="fill:#73cdd7; font-family:Galvji-Bold, Galvji; font-size:46px; font-weight:700; letter-spacing:0em;"><tspan x="0" y="0">TASK</tspan></text><rect x="19.17" y="19.78" style="fill:#b8c9d3; stroke-width:0px;"/><rect x="246.88" y="18.98" style="fill:#b8c9d3; stroke-width:0px;"/></symbol>
<symbol id="TapLogoTextReducedHeightWhite" viewBox="0 0 308.6 65.85"><text transform="translate(0 61.52) scale(1.03 1)" style="fill:#fff; font-family:AdobeClean-Bold, &apos;Adobe Clean&apos;; font-size:18px; font-weight:700;"><tspan x="0" y="0" style="letter-spacing:.31em;">A</tspan><tspan x="16.4" y="0" style="letter-spacing:.32em;">U</tspan><tspan x="33.97" y="0" style="letter-spacing:.31em;">T</tspan><tspan x="49.28" y="0" style="letter-spacing:.32em;">O</tspan><tspan x="67.52" y="0" style="letter-spacing:.31em;">M</tspan><tspan x="88.15" y="0" style="letter-spacing:.25em;">A</tspan><tspan x="103.55" y="0" style="letter-spacing:.32em;">TION </tspan><tspan x="176.17" y="0" style="letter-spacing:.27em;">P</tspan><tspan x="191.28" y="0" style="letter-spacing:.32em;">A</tspan><tspan x="208.03" y="0" style="letter-spacing:.32em;">R</tspan><tspan x="224.3" y="0" style="letter-spacing:.32em;">TN</tspan><tspan x="257.97" y="0" style="letter-spacing:.32em;">E</tspan><tspan x="273.27" y="0" style="letter-spacing:.35em;">R</tspan><tspan x="290.14" y="0" style="letter-spacing:.32em;">S</tspan></text><text transform="translate(90.29 39.21)" style="fill:#73cdd7; font-family:Galvji-Bold, Galvji; font-size:46px; font-weight:700; letter-spacing:0em;"><tspan x="0" y="0">TASK</tspan></text><rect x="5" y="19.78" style="fill:#fff; stroke-width:0px;"/><rect x="232.7" y="18.98" style="fill:#fff; stroke-width:0px;"/></symbol>
<symbol id="TapLogoTextWhiteLargert" viewBox="0 0 342.88 64.79"><text transform="translate(0 59.97) scale(1.03 1)" style="fill:#fff; font-family:AdobeClean-Bold, &apos;Adobe Clean&apos;; font-size:20px; font-weight:700;"><tspan x="0" y="0" style="letter-spacing:.31em;">A</tspan><tspan x="18.22" y="0" style="letter-spacing:.32em;">U</tspan><tspan x="37.74" y="0" style="letter-spacing:.31em;">T</tspan><tspan x="54.76" y="0" style="letter-spacing:.32em;">O</tspan><tspan x="75.02" y="0" style="letter-spacing:.32em;">M</tspan><tspan x="97.94" y="0" style="letter-spacing:.25em;">A</tspan><tspan x="115.06" y="0" style="letter-spacing:.32em;">TION </tspan><tspan x="195.74" y="0" style="letter-spacing:.27em;">P</tspan><tspan x="212.54" y="0" style="letter-spacing:.32em;">A</tspan><tspan x="231.14" y="0" style="letter-spacing:.32em;">R</tspan><tspan x="249.22" y="0" style="letter-spacing:.32em;">TN</tspan><tspan x="286.64" y="0" style="letter-spacing:.32em;">E</tspan><tspan x="303.64" y="0" style="letter-spacing:.35em;">R</tspan><tspan x="322.38" y="0" style="letter-spacing:.32em;">S</tspan></text><text transform="translate(104.47 39.21)" style="fill:#73cdd7; font-family:Galvji-Bold, Galvji; font-size:46px; font-weight:700; letter-spacing:0em;"><tspan x="0" y="0">TASK</tspan></text><rect x="19.17" y="19.78" style="fill:#fff; stroke-width:0px;"/><rect x="246.88" y="18.98" style="fill:#fff; stroke-width:0px;"/></symbol>
<symbol id="TapWhiteLogo" viewBox="0 0 185.84 176.59"><path d="M114.06,76.05c-1.3-.24-2.41.44-3.6.77-2.68.73-3.55.4-4.67-2.08-.45-1.01-.68-2.12-.97-3.19-1.32-4.92-1.09-5.38,3.55-7.22,3.67-1.45,4.5-2.75,3.98-6.41-.26-1.81-.88-3.39-3.02-3.73-.6-.1-1.17-.4-1.75-.61-3.56-1.27-4.02-2.16-3.06-5.88.22-.84.38-1.69.64-2.52,1.29-4.03,2.54-4.68,6.58-3.43,3.8,1.18,4.54,1.03,6.18-1.21,2.54-3.49,2.56-4.57.12-7.95-2.35-3.26-2.18-4.23,1.12-6.67.6-.44,1.19-.9,1.79-1.34,3.4-2.57,4.56-2.37,7.29,1.01,1.43,1.76,2.52,4.05,5.71,2.77,3.59-1.44,4.61-2.43,4.72-6.16.14-4.3,1.04-5.18,5.36-5.22.5,0,1,0,1.5,0,4.83.02,5.67.83,5.8,5.56.11,3.87,2.77,6.35,6.65,6.17.89-.04,1.68-.47,2.25-1.17.79-.96,1.64-1.9,2.27-2.96,1.24-2.1,2.97-2.19,4.77-1.1,1.8,1.08,3.52,2.35,5.09,3.75,1.32,1.17,1.62,2.49.33,4.21-1.51,2.02-3.19,4.13-2.03,7.11,1.28,3.32,3.19,4.48,6.61,3.6,5.9-1.52,5.95-1.5,7.76,4.26.3.94.6,1.9.75,2.87.25,1.75-.02,3.18-2.14,3.71-1.19.3-2.32.91-3.39,1.53-2.18,1.25-2.99,3.17-2.71,5.67.25,2.32,1.53,3.51,3.7,4.07,1.07.28,2.05.88,3.07,1.34.85.39,1.48,1,1.5,1.97.05,3.2-.93,6.11-2.76,8.69-.68.96-1.67,1.42-2.94.77-.76-.39-1.63-.61-2.47-.82-3.04-.74-4.4-.24-6.1,2.17-2.03,2.87-2.04,3.58-.01,6.64.48.73.98,1.44,1.47,2.16,1.01,1.51.56,2.85-.6,4-.61.61-1.4,1.02-2.09,1.55-5.14,3.96-5.18,3.99-9.33-1.21-1.6-2-3.36-2.16-5.59-1.27-2.17.86-4.27,1.62-4.04,4.55.04.5,0,1,0,1.5,0,.37.01.75-.02,1.12-.31,3.06-2,4.07-6.74,4.01-4.35-.05-5.61-.91-5.88-4-.03-.37-.02-.75,0-1.12.25-5.35-.82-4.89-5.72-6.52-1.46-.49-2.65.41-3.63,1.41-.61.61-1.01,1.42-1.57,2.08-2.43,2.86-3.05,2.94-6.21.82-.31-.21-.64-.39-.94-.61-6.15-4.52-4.73-4.82-1.74-9.05,1.02-1.44,1.7-2.98.62-4.46-1.34-1.83-2.41-4.28-5.41-3.92ZM144.72,37.11c-10.83-.42-21.99,9.48-21.79,21.86.21,12.66,9.35,22.18,21.88,22.15,13.44-.02,22.2-10.34,22.24-22.24.04-10.79-9.2-22.09-22.33-21.78Z" style="fill:#77ced9; stroke-width:0px;"/><path d="M100.38,44.6c.28,1.89-.75,3.59-.94,5.42-.1.97-.83,1.43-1.88,1.35-.87-.07-1.75-.01-2.62-.01-19.58,0-39.16,0-58.75,0-.75,0-1.5,0-2.25,0-6.11.07-7.82,1.71-7.85,7.72-.04,8.11-.01,16.21-.01,24.32,0,10.73,0,21.45,0,32.18,0,1.37,0,2.75.12,4.11.32,3.58,2.32,5.38,5.86,5.31,35.41-.7,70.82-.11,106.23-.3,5.1-.03,6.56-1.36,6.78-6.57.14-3.24.18-6.49-.01-9.72-.12-2.13.72-2.92,2.69-3.01,1.34-.06,2.68-.23,4.31-.37,0,5.78,0,11.36,0,16.94,0,1.1-.75,2.11.61,3.25.7.58.7,2.8-1.65,2.5-1.18-.15-1.74.8-2.49,1.41-2.51,2.03-5.37,3.08-8.59,3.15-1.37.03-2.74.05-4.11.05-34.42,0-68.85-.03-103.27-.03-8.62,0-13.77-4.97-13.79-13.58-.05-20.33.11-40.66-.09-60.99-.07-7.31,5.35-13.41,12.89-13.49,5.49-.06,10.98-.04,16.46-.04,16.21,0,32.43-.01,48.64.02,1.2,0,2.48-.35,3.71.4Z" style="fill:#fff; stroke-width:0px;"/><path d="M12.55,140.84h145.42c.29,5.31-3.1,9.16-8.35,9.31-5.86.17-11.72.14-17.58.15-8.86.02-17.71-.02-26.57.03-1.67.01-2.79-.19-3.21-2.16-.51-2.39-2.26-3.3-4.69-3.39-7.98-.28-15.95-.15-23.93-.07-2.7.03-4.69,1.19-5.17,3.89-.28,1.55-.95,1.81-2.21,1.71-.5-.04-1,0-1.5,0-13.22,0-26.44,0-39.66,0-2.12,0-4.2-.08-6.25-.84-3.87-1.44-6.09-4.02-6.31-8.64Z" style="fill:#fff; stroke-width:0px;"/><path d="M12.16,84.46c-3.04-4.58-4.91-9.52-6.84-14.44C.92,58.83-.68,47.2.26,35.28c.63-8.07,3.44-15.39,8.76-21.74C15.9,5.35,24.71,1.49,35.18.36c13.74-1.48,26.56,1.79,39.2,6.55,9.35,3.53,18.12,8.18,26.46,13.65,5.08,3.33,10.45,6.35,12.98,12.36.14.34.44.61.6.94.73,1.49.07,2.74-.95,3.69-1.04.96-1.81-.16-2.54-.73-5.37-4.23-10.83-8.34-16.53-12.12-14.72-9.78-30.33-17.71-48-20.28-8.66-1.26-17.62-1.61-25.84,2.7C11.64,11.78,6.15,18.94,4.52,29.06c-1.5,9.29-.33,18.3,2.2,27.21,1.22,4.3,2.57,8.56,4.35,12.68.79,1.83,1.18,3.77,1.13,5.81-.09,3.23-.02,6.47-.02,9.71Z" style="fill:#77ced9; stroke-width:0px;"/><path d="M78.17,156.35c6.69-.49,12.78-.32,18.75,3.46,9.31,5.89,19.87,9.09,30.64,11.11,8.85,1.66,17.7,1.54,26.35-1.95,9.61-3.87,16.95-13.87,17.73-25.12.94-13.48-2.14-26.12-7.42-38.37-.67-1.56-1.58-3.09-1.59-4.84.3-.16.51-.37.72-.37,5.21-.09,7.15,2.95,8.59,7.63,3.1,10.05,5.17,20.17,4.82,30.71-.6,18.3-12.16,33.62-31.1,37.02-10.32,1.85-20.56.94-30.61-1.8-10.22-2.78-19.97-6.78-29.11-12.19-1.82-1.07-3.76-1.93-5.62-2.94-.83-.45-1.94-.62-2.15-2.35Z" style="fill:#77ced9; stroke-width:0px;"/><path d="M98.92,102.52c-2.22-.12-3.54,1.6-2.34,3.52,1.21,1.93.1,2.67-1.02,3.68-1.2,1.07-2.1.63-3.24-.29-2.24-1.82-3.25-1.58-3.86.98-.39,1.66-1.09,2.34-2.72,2.38-1.61.05-2.3-.42-2.71-2.19-.61-2.61-2.22-2.99-4.32-1.2-1.31,1.12-2.29,1.28-3.54.12-1.04-.97-1.85-1.68-.82-3.41,1.29-2.17-.02-3.92-2.51-3.42-1.88.38-2.41-.35-2.93-1.86-.44-1.31-.6-2.14.81-3.11,3.01-2.07,2.94-2.63-.02-4.61-.77-.51-1.57-1.01-1.25-2.02.36-1.15.56-2.52,1.98-2.95.46-.14.99-.03,1.48-.08,2.97-.27,3.16-.5,2.52-3.38-.31-1.39-.61-2.63.92-3.6,1.51-.96,2.41-.31,3.58.68,1.6,1.36,3.12.86,3.94-1.32.54-1.44.74-2.99,2.78-2.8,1.77.17,2.39,1.29,2.81,2.94.54,2.12,2.07,2.57,3.75.98,1.46-1.39,2.58-1.01,3.96-.17,1.5.91.94,1.94.43,3.18-.92,2.27-.17,3.47,2.42,3.41,2.13-.05,2.91,1.05,3.43,2.68.52,1.63-.68,2-1.83,2.66-2.11,1.22-2.13,2.85.24,4.17,2.28,1.28,1.81,2.63.9,4.28-.66,1.19-1.68,1.38-2.84.72ZM94.5,95.55c.04-5.31-3.5-9.03-8.64-9.1-5.59-.08-9.07,3.38-9.46,8.72-.29,4.06,3.42,9.24,9.09,9.31,4.93.06,8.98-3.98,9.01-8.93Z" style="fill:#77ced9; stroke-width:0px;"/><path d="M41.7,79.17c.55-1.15.17-1.97-1-2.31-2.52-.75-2.1-2.2-.71-3.52,1.26-1.21,1.2-2.05.29-3.47-1.03-1.61-.56-2.89,1.7-2.78,1.59.08,2.14-.77,2.31-2.25.23-2.05,1.23-2.58,2.98-1.23,1.1.85,2.12.63,2.81-.57,1.06-1.83,2.24-1.44,3.04.03.76,1.4,1.6,2.09,3.22,1.77,1.96-.39,2.4.76,2.2,2.39-.17,1.4.17,2.36,1.69,2.84,1.92.6,1.76,2.13.6,3.08-1.43,1.17-1.88,1.87-.63,3.56,1.17,1.58.51,2.81-1.58,2.92-1.81.1-2.3.63-2.37,2.39-.08,1.97-1.08,2.73-2.92,1.26-1.16-.93-2.06-.59-3.22.4-2.1,1.81-2.45,1.7-3.46-.99-.55-1.46-1.18-1.03-2.23-.85-2.53.45-3.01-.1-2.75-2.66ZM50.46,79.12c3.33-.05,5.92-2.68,5.83-5.9-.09-3.09-2.98-6.25-5.93-6.08-4.2.25-6.24,2.89-6.08,6.5.15,3.29,2.62,5.53,6.18,5.48Z" style="fill:#77ced9; stroke-width:0px;"/><path d="M145.16,45.35c7.25-.94,13.9,7.22,13.8,13.54-.13,8.68-7.21,14.4-14.46,14.21-7.72-.21-13.4-6.08-13.37-14.26.02-8.03,5.71-13.5,14.02-13.49Z" style="fill:#fff; stroke-width:0px;"/></symbol>
<symbol id="chevron-down" class="icon icon-tabler icon-tabler-chevron-down" viewBox="0 0 24 24" stroke-width="2" stroke="currentColor" fill="none" stroke-linecap="round" stroke-linejoin="round">
  <path stroke="none" d="M0 0h24v24H0z" fill="none"/>
  <path d="M6 9l6 6l6 -6" />
</symbol>




<!-- Generator: Adobe Illustrator 27.9.0, SVG Export Plug-In . SVG Version: 6.00 Build 0)  -->
<symbol id="tapCyan"
	 x="0px" y="0px" viewBox="0 0 74 70"
	 style="enable-background:new 0 0 74 70;" xml:space="preserve">
<style type="text/css">
	.st0{clip-path:url(#SVGID_00000049200801753848045360000012076962877421784250_);}
	.st1{fill:#17E5E0;}
</style>
<g id="Layer_1-2">
	<g>
		<defs>
			<polyline id="SVGID_1_" points="74,70 0,70 0,0 74,0 			"/>
		</defs>
		<clipPath id="SVGID_00000104686643254126708940000008568866154772059011_">
			<use xlink:href="#SVGID_1_"  style="overflow:visible;"/>
		</clipPath>
		<g style="clip-path:url(#SVGID_00000104686643254126708940000008568866154772059011_);">
			<path className="st1" d="M64.3,48.1c-1.7,2.4-3.3,4.7-5.3,6.8c-1.5-1.1-2.9-2.1-4.4-3.1c-0.5-0.3-1-0.9-1.5-0.9
				c-0.5,0-0.9,0.5-1.4,0.8c-1.1,0.7-2.2,1.4-3.3,2.1c-0.3,0.2-0.3,0.3-0.3,0.6c0.5,2.2,0.9,4.5,1.3,6.8c-2.7,0.8-5.5,1.5-8.2,2.3
				c-0.8-2.3-1.5-4.5-2.2-6.7c-0.2-0.5-0.3-0.5-0.8-0.5c-1.5,0-3,0-4.5-0.1c-0.4,0-0.5,0.2-0.6,0.5c-0.9,2.2-1.6,4.4-2.5,6.5
				c-2.5-0.8-4.9-1.8-7.3-2.7c-0.9-0.4-0.9-0.4-0.6-1.4c0.6-1.9,1.2-3.8,1.7-5.7c0-0.2,0-0.5-0.1-0.6c-1.1-1-2.1-1.8-3.2-2.8
				c-0.3-0.3-0.5-0.3-0.9-0.1c-1.9,1.3-3.7,2.6-5.7,4c-1.7-2.3-3.4-4.7-5.1-7.1c2-1.5,3.9-3,5.9-4.5c0.1-0.1,0.2-0.4,0.1-0.6
				c-0.4-1.5-0.9-2.9-1.4-4.3c-0.1-0.3-0.3-0.4-0.6-0.4C11.1,37.1,9,37,6.8,36.9c-0.5,0-0.6-0.2-0.6-0.6c0.1-2.5,0.2-5,0.3-7.5
				c0-0.4,0.2-0.5,0.5-0.5c2.2-0.1,4.4-0.2,6.7-0.3c0.2,0,0.4-0.2,0.5-0.3c0.6-1.5,1.1-3,1.7-4.4c0.1-0.3,0-0.5-0.2-0.6
				c-1.6-1.3-3.1-2.6-4.7-4c-0.7-0.6-0.7-0.6-0.2-1.3c1.6-2,3.2-4.1,4.8-6.1c1.8,1.4,3.7,2.5,5.5,3.8c0.3,0.2,0.5,0.2,0.8,0
				c1.2-0.8,2.5-1.6,3.7-2.4c0.4-0.2,0.5-0.4,0.4-0.9c-0.5-2.2-1-4.4-1.4-6.6c2.4-0.9,5-1.5,7.5-2.3c0.5-0.2,0.8-0.1,1,0.5
				c0.7,2,1.4,3.9,2.1,5.8c0.1,0.1,0.3,0.3,0.5,0.3c1.6,0,3.2,0,4.8,0.1c0.4,0,0.6-0.1,0.7-0.4c0.8-2.1,1.7-4.2,2.6-6.3
				c2.7,0.9,5.3,1.9,8,2.8c-0.6,2.3-1.2,4.6-1.7,6.9c0,0.2,0.1,0.5,0.2,0.6c1.1,0.9,2.2,1.8,3.3,2.7c0.1,0.1,0.4,0.2,0.5,0.1
				c2-1.2,3.9-2.3,6-3.6c1.7,2.3,3.4,4.6,5.1,6.9c-1.9,1.6-3.8,3-5.6,4.6c-0.1,0.1-0.2,0.4-0.2,0.5c0.4,1.3,0.8,2.5,1.2,3.8
				c0.1,0.4,0.3,0.5,0.7,0.6c2.2,0.2,4.5,0.4,6.8,0.7v8.5c-2.4,0.1-4.7,0.2-7.1,0.3c-0.4,0-0.6,0.2-0.7,0.5c-0.5,1.3-1,2.6-1.5,3.9
				c-0.2,0.4,0,0.6,0.2,0.9C60.8,45,62.5,46.5,64.3,48.1L64.3,48.1z M37,50.9c10,0,18.1-7.8,18.4-17.6c0.3-9.3-7.2-18.4-17.8-18.5
				c-10.2-0.1-18.4,8.4-18.1,18.8C19.7,42.9,27.3,50.9,37,50.9z"/>
			<path className="st1" d="M45.4,28.9h-1.1V28c1.7,0,3.5-0.1,5.2,0.1c1.9,0.2,3.1,1.6,3,3.3c-0.2,3-3.1,3.2-5.6,3.1v3
				c0.6,0.1,1.2,0.2,1.8,0.3v0.7c-1.5,0-2.9,0-4.3,0c-0.1,0-0.3-0.2-0.4-0.4c0.1-0.1,0.2-0.2,0.2-0.2c0.8-0.3,1.2-1,1.2-1.8
				C45.4,33.7,45.4,31.3,45.4,28.9L45.4,28.9z M47,29.1c-0.2,0.9,0,1.9-0.1,2.9c0,1.5,0,1.5,1.5,1.5c2.2,0.2,3.2-2.4,2-4
				C49.5,28.5,48.1,29.1,47,29.1z"/>
			<path className="st1" d="M42.8,38.4h-4.1c-0.3-0.5,0.1-0.6,0.4-0.7c0.3-0.1,0.6-0.2,1-0.3c-0.3-0.7-0.5-1.3-0.8-1.9
				c0-0.1-0.3-0.2-0.4-0.2c-1.2,0-2.5,0-3.7,0c-0.1,0-0.3,0.1-0.4,0.2c-0.3,0.7-0.5,1.3-0.8,2c0.7,0.2,2-0.2,1.6,0.9h-4
				c-0.2-0.3-0.1-0.5,0.3-0.6c0.7-0.1,1.1-0.6,1.3-1.3c1.1-2.8,2.4-5.5,3.4-8.4c0.3-0.1,0.7-0.2,1.1-0.4c1.3,3.2,2.6,6.2,3.8,9.4
				c0.2,0.4,0.4,0.6,0.8,0.5C42.9,37.6,43.1,37.8,42.8,38.4L42.8,38.4z M37.1,29.7c-0.6,1.6-1.2,3-1.8,4.5h3.5
				C38.3,32.7,37.7,31.3,37.1,29.7L37.1,29.7z"/>
			<path className="st1" d="M26.1,29.1h-2.6c-0.1,0.5-0.2,1-0.2,1.6h-0.9c0-0.9-0.1-1.7-0.1-2.6h9.2c0,0.9-0.1,1.7-0.1,2.5
				c-0.9,0.2-0.9,0.2-1-0.6c0-0.3-0.1-0.6-0.1-0.9h-2.6v8.4c0.6,0.1,1.1,0.2,1.7,0.2v0.7c-1.6,0-3.1,0-4.7,0c-0.1,0-0.2-0.2-0.4-0.4
				c0.7-0.3,1.6-0.3,1.8-0.9C26.1,34.5,26.3,31.8,26.1,29.1L26.1,29.1z"/>
		</g>
	</g>
</g>
</symbol>

<symbol id="undraw_data_processing_yrrv" data-name="Layer 1" viewBox="0 0 855.41839 610.77534"><circle cx="39.53587" cy="110.72662" r="13.63057" fill="currentColor"/><circle cx="80.42757" cy="110.72662" r="13.63057" fill="currentColor"/><circle cx="121.31927" cy="110.72662" r="13.63057" fill="currentColor"/><circle cx="162.21097" cy="110.72662" r="13.63057" fill="currentColor"/><circle cx="203.10267" cy="110.72662" r="13.63057" fill="currentColor"/><circle cx="243.99437" cy="110.72662" r="13.63057" fill="currentColor"/><circle cx="284.88607" cy="110.72662" r="13.63057" fill="currentColor"/><path d="M488.67447,271.93783H180.32909a5.55346,5.55346,0,0,1-5.54693-5.54693V244.28714a5.55345,5.55345,0,0,1,5.54693-5.54693H488.67447a5.55346,5.55346,0,0,1,5.54693,5.54693V266.3909A5.55347,5.55347,0,0,1,488.67447,271.93783ZM180.32909,240.959a3.3318,3.3318,0,0,0-3.32816,3.32816V266.3909a3.3318,3.3318,0,0,0,3.32816,3.32815H488.67447a3.33179,3.33179,0,0,0,3.32815-3.32815V244.28714a3.33179,3.33179,0,0,0-3.32815-3.32816Z" transform="translate(-172.29081 -144.61233)" fill="currentColor"/><path d="M246.31694,147.79938a3.19065,3.19065,0,0,1,3.187,3.187V220.049a3.19065,3.19065,0,0,1-3.187,3.187h-67.652a3.19065,3.19065,0,0,1-3.187-3.187V150.98643a3.19065,3.19065,0,0,1,3.187-3.187h67.652m0-3.18705h-67.652a6.3741,6.3741,0,0,0-6.3741,6.3741V220.049a6.3741,6.3741,0,0,0,6.3741,6.3741h67.652a6.37411,6.37411,0,0,0,6.3741-6.3741V150.98643a6.37411,6.37411,0,0,0-6.3741-6.3741Z" transform="translate(-172.29081 -144.61233)" fill="currentColor"/><path d="M235.76469,165.95293H190.62778a1.59353,1.59353,0,1,1,0-3.187h45.13691a1.59353,1.59353,0,1,1,0,3.187Z" transform="translate(-172.29081 -144.61233)" fill="currentColor"/><path d="M235.76469,177.23755H190.62778a1.59353,1.59353,0,1,1,0-3.187h45.13691a1.59353,1.59353,0,1,1,0,3.187Z" transform="translate(-172.29081 -144.61233)" fill="currentColor"/><path d="M235.76469,188.52139H190.62778a1.59353,1.59353,0,1,1,0-3.187h45.13691a1.59353,1.59353,0,1,1,0,3.187Z" transform="translate(-172.29081 -144.61233)" fill="currentColor"/><path d="M235.76469,199.806H190.62778a1.59353,1.59353,0,1,1,0-3.187h45.13691a1.59353,1.59353,0,1,1,0,3.187Z" transform="translate(-172.29081 -144.61233)" fill="currentColor"/><path d="M235.76469,211.09063H190.62778a1.59353,1.59353,0,1,1,0-3.18706h45.13691a1.59353,1.59353,0,0,1,0,3.18706Z" transform="translate(-172.29081 -144.61233)" fill="currentColor"/><path d="M477.37812,147.79938a3.19065,3.19065,0,0,1,3.187,3.187V220.049a3.19065,3.19065,0,0,1-3.187,3.187h-67.652a3.19065,3.19065,0,0,1-3.187-3.187V150.98643a3.19065,3.19065,0,0,1,3.187-3.187h67.652m0-3.18705h-67.652a6.3741,6.3741,0,0,0-6.3741,6.3741V220.049a6.3741,6.3741,0,0,0,6.3741,6.3741h67.652a6.3741,6.3741,0,0,0,6.3741-6.3741V150.98643a6.3741,6.3741,0,0,0-6.3741-6.3741Z" transform="translate(-172.29081 -144.61233)" fill="currentColor"/><path d="M466.82588,165.95293H421.689a1.59353,1.59353,0,1,1,0-3.187h45.13692a1.59353,1.59353,0,0,1,0,3.187Z" transform="translate(-172.29081 -144.61233)" fill="currentColor"/><path d="M466.82588,177.23755H421.689a1.59353,1.59353,0,1,1,0-3.187h45.13692a1.59353,1.59353,0,0,1,0,3.187Z" transform="translate(-172.29081 -144.61233)" fill="currentColor"/><path d="M466.82588,188.52139H421.689a1.59353,1.59353,0,1,1,0-3.187h45.13692a1.59353,1.59353,0,0,1,0,3.187Z" transform="translate(-172.29081 -144.61233)" fill="currentColor"/><path d="M466.82588,199.806H421.689a1.59353,1.59353,0,1,1,0-3.187h45.13692a1.59353,1.59353,0,0,1,0,3.187Z" transform="translate(-172.29081 -144.61233)" fill="currentColor"/><path d="M466.82588,211.09063H421.689a1.59353,1.59353,0,1,1,0-3.18706h45.13692a1.59353,1.59353,0,0,1,0,3.18706Z" transform="translate(-172.29081 -144.61233)" fill="currentColor"/><path d="M707.317,280.59077a3.19065,3.19065,0,0,1,3.187,3.187v69.06255a3.19066,3.19066,0,0,1-3.187,3.187H639.665a3.19066,3.19066,0,0,1-3.187-3.187V283.77782a3.19065,3.19065,0,0,1,3.187-3.187h67.652m0-3.187H639.665a6.3741,6.3741,0,0,0-6.3741,6.3741v69.06255a6.3741,6.3741,0,0,0,6.3741,6.3741h67.652a6.37411,6.37411,0,0,0,6.3741-6.3741V283.77782a6.3741,6.3741,0,0,0-6.3741-6.3741Z" transform="translate(-172.29081 -144.61233)" fill="currentColor"/><path d="M696.76476,298.74432H651.62784a1.59353,1.59353,0,1,1,0-3.187h45.13692a1.59353,1.59353,0,0,1,0,3.187Z" transform="translate(-172.29081 -144.61233)" fill="currentColor"/><path d="M696.76476,310.02894H651.62784a1.59353,1.59353,0,0,1,0-3.18706h45.13692a1.59353,1.59353,0,0,1,0,3.18706Z" transform="translate(-172.29081 -144.61233)" fill="currentColor"/><path d="M696.76476,321.31278H651.62784a1.59352,1.59352,0,1,1,0-3.187h45.13692a1.59353,1.59353,0,0,1,0,3.187Z" transform="translate(-172.29081 -144.61233)" fill="currentColor"/><path d="M696.76476,332.59739H651.62784a1.59353,1.59353,0,1,1,0-3.187h45.13692a1.59353,1.59353,0,0,1,0,3.187Z" transform="translate(-172.29081 -144.61233)" fill="currentColor"/><path d="M696.76476,343.882H651.62784a1.59353,1.59353,0,1,1,0-3.187h45.13692a1.59353,1.59353,0,0,1,0,3.187Z" transform="translate(-172.29081 -144.61233)" fill="currentColor"/><path d="M362.73282,226.42308H293.30943a7.08972,7.08972,0,0,1-7.08139-7.08138V169.66541a7.08988,7.08988,0,0,1,7.08139-7.08216h69.42339a7.09,7.09,0,0,1,7.08217,7.08216V219.3417A7.08988,7.08988,0,0,1,362.73282,226.42308ZM293.30943,165.7703a3.89917,3.89917,0,0,0-3.89434,3.89511V219.3417a3.89851,3.89851,0,0,0,3.89434,3.89433h69.42339a3.89917,3.89917,0,0,0,3.89511-3.89433V169.66541a3.89983,3.89983,0,0,0-3.89511-3.89511Z" transform="translate(-172.29081 -144.61233)" fill="currentColor"/><path d="M350.59,184.81246H305.45305a1.59353,1.59353,0,0,1,0-3.187H350.59a1.59353,1.59353,0,1,1,0,3.187Z" transform="translate(-172.29081 -144.61233)" fill="currentColor"/><path d="M350.59,196.09708H305.45305a1.59353,1.59353,0,0,1,0-3.187H350.59a1.59353,1.59353,0,1,1,0,3.187Z" transform="translate(-172.29081 -144.61233)" fill="currentColor"/><path d="M350.59,207.38092H305.45305a1.59353,1.59353,0,0,1,0-3.187H350.59a1.59353,1.59353,0,1,1,0,3.187Z" transform="translate(-172.29081 -144.61233)" fill="currentColor"/><path d="M593.09111,253.95025,526.41486,234.6141a7.08971,7.08971,0,0,1-4.82882-8.77351l13.83608-47.71054a7.08988,7.08988,0,0,1,8.77372-4.82958l66.67625,19.33615a7.09,7.09,0,0,1,4.82935,8.77447l-13.83608,47.71055A7.08988,7.08988,0,0,1,593.09111,253.95025Zm-49.78294-77.58884a3.89916,3.89916,0,0,0-4.82511,2.65631L524.647,226.72827a3.89851,3.89851,0,0,0,2.65557,4.8249l66.67624,19.33614a3.89918,3.89918,0,0,0,4.82565-2.65535l13.83608-47.71054a3.89985,3.89985,0,0,0-2.65609-4.82587Z" transform="translate(-172.29081 -144.61233)" fill="currentColor"/><path d="M593.01835,210.60411l-43.3508-12.57175a1.59353,1.59353,0,0,1,.88767-3.06094L593.906,207.54318a1.59352,1.59352,0,1,1-.88768,3.06093Z" transform="translate(-172.29081 -144.61233)" fill="currentColor"/><path d="M589.87531,221.44219,546.5245,208.87043a1.59352,1.59352,0,1,1,.88767-3.06093L590.763,218.38125a1.59353,1.59353,0,0,1-.88767,3.06094Z" transform="translate(-172.29081 -144.61233)" fill="currentColor"/><path d="M586.73248,232.27951l-43.35081-12.57175a1.59353,1.59353,0,0,1,.88767-3.06094l43.35081,12.57176a1.59352,1.59352,0,0,1-.88767,3.06093Z" transform="translate(-172.29081 -144.61233)" fill="currentColor"/><rect x="156.10589" y="607.77534" fill="currentColor"/><polygon points="562.14 603.085 448.421 603.085 452.276 552.973 558.285 552.973 562.14 603.085" fill="currentColor"/><rect x="442.63878" y="597.3034" fill="currentColor"/><path d="M895.37073,374.74021H460.73514a11.56458,11.56458,0,0,0-11.56458,11.56458h0V651.3265H906.93533V386.30479a11.56457,11.56457,0,0,0-11.56456-11.56458Z" transform="translate(-172.29081 -144.61233)" fill="currentColor"/><path d="M449.17056,651.3265v43.36719a11.56457,11.56457,0,0,0,11.56458,11.56457H895.37073a11.56459,11.56459,0,0,0,11.5646-11.56457h0V651.3265Z" transform="translate(-172.29081 -144.61233)" fill="currentColor"/><rect x="300.00891" y="254.22076" fill="currentColor"/><circle cx="506.244" cy="533.69821" r="11.56459" fill="currentColor"/><circle cx="312.86987" cy="261.79534" r="2.19466" fill="currentColor"/><circle cx="321.20026" cy="261.79534" r="2.19466" fill="currentColor"/><circle cx="329.53064" cy="261.79534" r="2.19466" fill="currentColor"/><rect x="310.6752" y="269.25275" fill="currentColor"/><path d="M508.885,443.41111a1.37973,1.37973,0,0,0-1.37842,1.37842v69.67578a1.37973,1.37973,0,0,0,1.37842,1.37841H589.3493a1.37973,1.37973,0,0,0,1.37842-1.37841V444.78953a1.37973,1.37973,0,0,0-1.37842-1.37842Z" transform="translate(-172.29081 -144.61233)" fill="currentColor"/><path d="M638.08075,443.63523a1.37984,1.37984,0,0,0-1.37891,1.37842v69.45166a1.37984,1.37984,0,0,0,1.37891,1.37841h80.208a1.37963,1.37963,0,0,0,1.37793-1.37841V445.01365a1.37963,1.37963,0,0,0-1.37793-1.37842Z" transform="translate(-172.29081 -144.61233)" fill="currentColor"/><path d="M765.92157,442.9072a1.37963,1.37963,0,0,0-1.37793,1.37842v70.17969a1.37962,1.37962,0,0,0,1.37793,1.37841h81.042a1.37962,1.37962,0,0,0,1.37793-1.37841V444.28562a1.37963,1.37963,0,0,0-1.37793-1.37842Z" transform="translate(-172.29081 -144.61233)" fill="currentColor"/><path d="M510.35614,550.333a2.84986,2.84986,0,0,0,0,5.69971h75.65234a2.84986,2.84986,0,0,0,0-5.69971Z" transform="translate(-172.29081 -144.61233)" fill="currentColor"/><path d="M510.35614,563.88865a2.8501,2.8501,0,0,0,0,5.70019h34.062a2.8501,2.8501,0,0,0,0-5.70019Z" transform="translate(-172.29081 -144.61233)" fill="currentColor"/><path d="M640.94012,550.333a2.84986,2.84986,0,0,0,0,5.69971h75.65235a2.84986,2.84986,0,0,0,0-5.69971Z" transform="translate(-172.29081 -144.61233)" fill="currentColor"/><path d="M640.94012,563.88865a2.8501,2.8501,0,0,0,0,5.70019h34.0625a2.8501,2.8501,0,0,0,0-5.70019Z" transform="translate(-172.29081 -144.61233)" fill="currentColor"/><path d="M768.26044,550.333a2.84986,2.84986,0,0,0,0,5.69971h75.65234a2.84986,2.84986,0,0,0,0-5.69971Z" transform="translate(-172.29081 -144.61233)" fill="currentColor"/><path d="M510.35614,536.333a2.84986,2.84986,0,0,0,0,5.69971h75.65234a2.84986,2.84986,0,0,0,0-5.69971Z" transform="translate(-172.29081 -144.61233)" fill="currentColor"/><path d="M640.94012,536.333a2.84986,2.84986,0,0,0,0,5.69971h75.65235a2.84986,2.84986,0,0,0,0-5.69971Z" transform="translate(-172.29081 -144.61233)" fill="currentColor"/><path d="M768.26044,536.333a2.84986,2.84986,0,0,0,0,5.69971h75.65234a2.84986,2.84986,0,0,0,0-5.69971Z" transform="translate(-172.29081 -144.61233)" fill="currentColor"/><path d="M768.26044,563.88865a2.8501,2.8501,0,0,0,0,5.70019H802.322a2.8501,2.8501,0,0,0,0-5.70019Z" transform="translate(-172.29081 -144.61233)" fill="currentColor"/></symbol>
</svg>
